<?xml version="1.0" encoding="UTF-8" standalone="no"?>
<!-- Created with Inkscape (http://www.inkscape.org/) -->

<svg
   xmlns:dc="http://purl.org/dc/elements/1.1/"
   xmlns:cc="http://creativecommons.org/ns#"
   xmlns:rdf="http://www.w3.org/1999/02/22-rdf-syntax-ns#"
   xmlns:svg="http://www.w3.org/2000/svg"
   xmlns="http://www.w3.org/2000/svg"
   xmlns:sodipodi="http://sodipodi.sourceforge.net/DTD/sodipodi-0.dtd"
   xmlns:inkscape="http://www.inkscape.org/namespaces/inkscape"
   width="744.09448819"
   height="1052.3622047"
   id="svg3114"
   version="1.1"
   inkscape:version="0.48.4 r9939"
   sodipodi:docname="fiber-rl.svg">
  <defs
     id="defs3116" />
  <sodipodi:namedview
     id="base"
     pagecolor="#ffffff"
     bordercolor="#666666"
     borderopacity="1.0"
     inkscape:pageopacity="0.0"
     inkscape:pageshadow="2"
     inkscape:zoom="0.35"
     inkscape:cx="375"
     inkscape:cy="520"
     inkscape:document-units="px"
     inkscape:current-layer="layer1"
     showgrid="false"
     inkscape:window-width="466"
     inkscape:window-height="440"
     inkscape:window-x="765"
     inkscape:window-y="280"
     inkscape:window-maximized="0" />
  <metadata
     id="metadata3119">
    <rdf:RDF>
      <cc:Work
         rdf:about="">
        <dc:format>image/svg+xml</dc:format>
        <dc:type
           rdf:resource="http://purl.org/dc/dcmitype/StillImage" />
        <dc:title></dc:title>
      </cc:Work>
    </rdf:RDF>
  </metadata>
  <g
     inkscape:label="Layer 1"
     inkscape:groupmode="layer"
     id="layer1">
    <g
       id="g3050"
       transform="translate(-200.26971,-140.56676)">
      <path
         style="fill:#d1d1d1"
         d="m 571.87618,633.88098 c 0.67834,-0.68342 1.48524,-0.99067 1.79313,-0.68278 0.30789,0.30788 -0.24711,0.86705 -1.23333,1.24258 -1.4252,0.54268 -1.54006,0.42782 -0.5598,-0.5598 z m 6.97734,-0.1875 c -0.36443,-0.94969 0.29923,-1.1938 2.40525,-0.8847 3.9449,0.57898 4.71816,2.19629 1.05009,2.19629 -1.62362,0 -3.17852,-0.59022 -3.45534,-1.31159 z m 7.28933,-0.91511 c 0,-1.82294 1.77282,-3.33381 2.75701,-2.34963 0.34317,0.34317 -0.13677,1.38466 -1.06653,2.31443 -1.55895,1.55894 -1.69048,1.56168 -1.69048,0.0352 z m -11,-0.7733 c 0,-0.55 0.45,-1 1,-1 0.55,0 1,0.45 1,1 0,0.55 -0.45,1 -1,1 -0.55,0 -1,-0.45 -1,-1 z m 28.5,-3 c -0.33992,-0.55 -0.14148,-1 0.44098,-1 0.58246,0 1.05902,0.45 1.05902,1 0,0.55 -0.19844,1 -0.44098,1 -0.24254,0 -0.7191,-0.45 -1.05902,-1 z m -14.93725,-2.30292 c 0.64642,-1.68454 6.43725,-5.12185 6.43725,-3.821 0,0.54403 -0.85843,1.2616 -1.90762,1.5946 -1.04919,0.333 -2.16007,1.26332 -2.46861,2.06739 -0.30855,0.80406 -1.011,1.46193 -1.561,1.46193 -0.55,0 -0.77501,-0.58631 -0.50002,-1.30292 z m 11.18725,-1.08913 c -0.9625,-0.73064 -1.75,-1.6022 -1.75,-1.93681 0,-1.1267 2.84004,0.46963 3.3913,1.90618 0.65864,1.7164 0.58132,1.71785 -1.6413,0.0306 z m 12.25,-3.10795 c 0,-0.825 0.45,-1.5 1,-1.5 0.55,0 1,0.675 1,1.5 0,0.825 -0.45,1.5 -1,1.5 -0.55,0 -1,-0.675 -1,-1.5 z m -120.25019,-7.50899 c -5.99091,-5.9354 -7.37883,-9.20416 -2.16761,-5.10501 1.47813,1.1627 2.31582,2.114 1.86153,2.114 -0.45429,0 0.0475,0.66069 1.11514,1.4682 1.06762,0.80751 1.54294,1.48251 1.05627,1.5 -2.51535,0.0904 4.67141,4.0318 7.35161,4.0318 1.84621,0 2.89533,0.41414 2.53325,1 -1.62992,2.63726 -5.84693,0.8396 -11.75019,-5.00899 z m 21.25019,4.1174 c 0,-0.60963 1.36412,-1.10841 3.03138,-1.10841 1.77208,0 3.27051,-0.62314 3.60699,-1.5 0.31659,-0.825 1.07746,-1.5 1.69084,-1.5 0.61338,0 0.22773,0.87163 -0.85699,1.93695 -2.35888,2.31669 -7.47222,3.80265 -7.47222,2.17146 z m 98,-0.10841 c 0,-0.55 0.45,-1 1,-1 0.55,0 1,0.45 1,1 0,0.55 -0.45,1 -1,1 -0.55,0 -1,-0.45 -1,-1 z m -89,-6 c 0,-0.55 0.45,-1 1,-1 0.55,0 1,0.45 1,1 0,0.55 -0.45,1 -1,1 -0.55,0 -1,-0.45 -1,-1 z m 42.65732,0.25 c -0.25339,-0.4125 0.84505,-0.79792 2.44098,-0.85648 1.59594,-0.0586 2.9017,0.27894 2.9017,0.75 0,1.05285 -4.70375,1.1466 -5.34268,0.10648 z m 6.34268,-0.13197 c 0,-0.55 0.45,-1.27811 1,-1.61803 0.55,-0.33992 1,-0.16803 1,0.38197 0,0.55 -0.45,1.27811 -1,1.61803 -0.55,0.33992 -1,0.16803 -1,-0.38197 z m 33.75,0.19264 c -0.9625,-0.25152 -1.75,-0.87432 -1.75,-1.38399 0,-1.34257 1.33681,-1.13916 3.55887,0.54152 1.94515,1.47123 1.46065,1.69689 -1.80887,0.84247 z m 8.51283,-1.47166 c -0.12125,-1.60963 0.12265,-1.85353 0.98809,-0.98809 0.75682,0.75682 0.81178,1.48638 0.16099,2.13717 -0.65079,0.65079 -1.04305,0.25853 -1.14908,-1.14908 z m 3.73717,1.27902 c 0,-0.55 0.45,-1.27811 1,-1.61803 0.55,-0.33992 1,-0.16803 1,0.38197 0,0.55 -0.45,1.27811 -1,1.61803 -0.55,0.33992 -1,0.16803 -1,-0.38197 z m -199.92308,-4.19495 c -3.17281,-3.17282 -3.61784,-3.9231 -2.32692,-3.92305 0.4125,2e-5 2.00668,1.57502 3.54263,3.5 3.44885,4.32239 2.88118,4.51993 -1.21571,0.42305 z m 182.54213,1.55311 c -0.89048,-0.89048 -1.63402,-1.2494 -1.65232,-0.79762 -0.0183,0.45179 -0.9183,-0.24092 -2,-1.53935 -1.0817,-1.29843 -1.96673,-2.01619 -1.96673,-1.59502 0,0.42118 -0.88939,-0.0391 -1.97642,-1.02286 -1.08703,-0.98375 -1.73547,-2.17849 -1.44098,-2.65499 0.29449,-0.47649 0.0589,-0.86635 -0.52358,-0.86635 -0.58246,0 -1.04777,-0.5625 -1.03402,-1.25 0.0138,-0.6875 1.82245,0.65439 4.01932,2.98198 2.19687,2.32759 4.09812,4.13578 4.22499,4.01819 0.53955,-0.50003 5.05738,3.25648 4.53941,3.77445 -0.31385,0.31384 -1.2992,-0.15795 -2.18967,-1.04843 z m -5.61905,-4.85374 c 0,-0.20766 -0.7875,-0.99516 -1.75,-1.75 -1.58606,-1.24388 -1.62143,-1.20851 -0.37756,0.37755 1.30637,1.66575 2.12756,2.19548 2.12756,1.37245 z m 28.5,4.37755 c 0.33992,-0.55 0.81648,-1 1.05902,-1 0.24254,0 0.44098,0.45 0.44098,1 0,0.55 -0.47656,1 -1.05902,1 -0.58246,0 -0.7809,-0.45 -0.44098,-1 z m 2.51531,0.37245 c -0.0229,-1.68627 2.68664,-3.66373 3.41197,-2.49011 0.33294,0.53871 0.148,1.26212 -0.41097,1.60758 -0.55897,0.34546 -1.0232,0.26406 -1.03162,-0.1809 -0.008,-0.44496 -0.45153,-0.13402 -0.98469,0.69098 -0.53316,0.825 -0.97627,0.9926 -0.98469,0.37245 z m 90.98469,-0.37245 c 0,-0.55 0.45,-1 1,-1 0.55,0 1,0.45 1,1 0,0.55 -0.45,1 -1,1 -0.55,0 -1,-0.45 -1,-1 z m -246.98739,-0.97105 c -1.16897,-0.73909 -1.0084,-0.90434 0.75,-0.77188 1.23056,0.0927 2.23739,0.52278 2.23739,0.95573 0,1.0435 -1.159,0.97217 -2.98739,-0.18385 z m 105.48739,-0.029 c -0.33992,-0.55 -0.14148,-1 0.44098,-1 0.58246,0 1.05902,0.45 1.05902,1 0,0.55 -0.19844,1 -0.44098,1 -0.24254,0 -0.7191,-0.45 -1.05902,-1 z m 43.05279,0.0854 c -0.32198,-0.52097 -0.15917,-1.21065 0.3618,-1.53262 0.52097,-0.32198 1.21065,-0.15917 1.53262,0.3618 0.32198,0.52097 0.15917,1.21065 -0.3618,1.53262 -0.52097,0.32198 -1.21065,0.15917 -1.53262,-0.3618 z m -144.49371,-1.1872 c -1.34251,-0.53626 -3.74919,-0.84523 -5.34819,-0.68661 -2.3576,0.23387 -3.55539,-0.49149 -6.33535,-3.8366 l -3.4281,-4.125 2.63304,0 c 1.44818,0 2.18617,0.28125 1.63998,0.625 -0.592,0.37259 -0.0986,1.92602 1.22174,3.8465 1.60685,2.33721 2.51587,2.92043 3.31161,2.12469 1.26204,-1.26204 8.24619,-0.27302 8.24619,1.16774 0,0.50781 0.74882,0.63595 1.66404,0.28475 1.11889,-0.42936 1.42717,-0.25527 0.94099,0.53138 -0.84456,1.36653 -1.27919,1.37305 -4.54595,0.0681 z m 7.94092,0.10179 c 0,-0.55 0.92656,-1 2.05902,-1 1.13246,0 1.7809,0.45 1.44098,1 -0.33992,0.55 -1.26648,1 -2.05902,1 -0.79254,0 -1.44098,-0.45 -1.44098,-1 z m 58.49831,-1.96611 c 1.87113,-1.97309 2.34106,-2.90948 1.25,-2.4908 -1.01555,0.3897 -1.74831,0.20692 -1.74831,-0.4361 0,-0.60884 1.0125,-1.14872 2.25,-1.19973 3.40123,-0.14018 10.78728,0.21475 12.88816,0.61935 1.02401,0.1972 1.86184,-0.0922 1.86184,-0.64304 0,-0.55088 0.47693,-0.70685 1.05984,-0.34659 0.67312,0.41601 0.39945,1.19711 -0.75,2.14066 -1.64747,1.35235 -1.65392,1.43668 -0.0718,0.93998 0.95591,-0.3001 1.69012,-0.22434 1.63158,0.16837 -0.28645,1.92181 0.26717,2.34541 1.60941,1.23145 1.12462,-0.93335 1.2312,-1.74139 0.44483,-3.37244 -0.93711,-1.94371 -0.9024,-1.98224 0.36989,-0.41054 0.77222,0.95395 1.63172,1.50678 1.90998,1.22851 0.27827,-0.27826 1.58378,-0.0748 2.90113,0.45216 2.3004,0.92019 2.27081,0.96061 -0.74783,1.02148 -1.82482,0.0368 -3.38442,0.6925 -3.71862,1.56339 -0.80814,2.10598 -2.03423,1.87923 -5.46973,-1.01155 -2.33465,-1.96448 -3.97627,-2.47405 -7.53648,-2.33939 -2.50342,0.0947 -4.39914,0.43739 -4.21272,0.76155 0.18643,0.32417 -1.29418,1.6459 -3.29024,2.93719 l -3.6292,2.34779 2.99831,-3.1617 z m -16.20545,-2.18064 c 0.33286,-2.48167 1.46651,-4.99128 2.82326,-6.25 1.38247,-1.28256 1.75434,-1.4204 0.95303,-0.35325 -1.11696,1.48753 -1.0707,1.75 0.30841,1.75 0.89234,0 1.62244,0.46973 1.62244,1.04384 0,0.57411 -0.7875,0.91161 -1.75,0.75 -1.36606,-0.22937 -1.81809,0.52889 -2.06037,3.45616 -0.1707,2.0625 -0.79245,3.75 -1.38166,3.75 -0.67893,0 -0.86759,-1.5188 -0.51511,-4.14675 z m 38.70714,3.14675 c 0,-0.55 0.42344,-1 0.94098,-1 0.51754,0 1.2191,0.45 1.55902,1 0.33992,0.55 -0.0835,1 -0.94098,1 -0.85746,0 -1.55902,-0.45 -1.55902,-1 z m 67.5,-1 c -0.33992,-0.55 -0.14148,-1 0.44098,-1 0.58246,0 1.05902,0.45 1.05902,1 0,0.55 -0.19844,1 -0.44098,1 -0.24254,0 -0.7191,-0.45 -1.05902,-1 z m -55.2652,-1.2044 c 0.22081,-0.66242 -0.75419,-2.20832 -2.16667,-3.43534 -1.97327,-1.71418 -2.16043,-2.17408 -0.80801,-1.98547 0.96807,0.135 2.2161,0.70144 2.77341,1.25874 1.44384,1.44384 2.0474,5.36647 0.82572,5.36647 -0.56425,0 -0.84526,-0.54198 -0.62445,-1.2044 z m 45.40137,-0.28986 c 0.31537,-0.82184 0.98359,-1.24074 1.48493,-0.9309 1.04858,0.64806 0.20682,2.42516 -1.14873,2.42516 -0.50028,0 -0.65157,-0.67241 -0.3362,-1.49426 z m -206.47566,-3.05279 c -1.426,-3.12975 -1.4355,-3.45295 -0.10149,-3.45295 0.58246,0 0.7809,0.45 0.44098,1 -0.33992,0.55 -0.19396,1 0.32435,1 0.51831,0 1.17774,0.9 1.4654,2 0.74761,2.85887 -0.75307,2.47331 -2.12924,-0.54705 z m 151.83949,0.54705 c 0,-0.55 0.45,-1 1,-1 0.55,0 1,0.45 1,1 0,0.55 -0.45,1 -1,1 -0.55,0 -1,-0.45 -1,-1 z m 57,-0.0622 c 0,-0.51582 0.9,-0.93785 2,-0.93785 1.1,0 2,0.35424 2,0.7872 0,0.43295 -0.9,0.85499 -2,0.93785 -1.1,0.0829 -2,-0.27138 -2,-0.7872 z m 78,0.0622 c 0,-0.55 0.60929,-1 1.35398,-1 0.74468,0 2.56787,-1.125 4.05152,-2.5 4.06473,-3.76707 4.49696,-3.0011 0.54636,0.96825 -3.39478,3.41089 -5.95186,4.4986 -5.95186,2.53175 z m -73,-1 c 0,-0.55 0.45,-1 1,-1 0.55,0 0.94671,-0.3375 0.88158,-0.75 -0.33732,-2.13633 0.27637,-3.12662 1.61842,-2.61163 2.04351,0.78417 1.8831,-0.33587 -0.47799,-3.33751 -1.65268,-2.10105 -1.77964,-2.86707 -0.77198,-4.65773 1.19966,-2.13185 1.20789,-2.12997 1.56267,0.35687 0.19616,1.375 0.83456,2.95 1.41868,3.5 0.73375,0.69089 0.81437,0.56586 0.26082,-0.40451 -0.50357,-0.88273 -0.41441,-1.16545 0.23998,-0.76101 0.57267,0.35393 1.55798,0.0208 2.1896,-0.74023 0.90623,-1.09194 0.78005,-1.3532 -0.59838,-1.23899 -1.0499,0.087 -1.85841,-0.65315 -2.0266,-1.85526 -0.27011,-1.93061 -0.25141,-1.93291 0.53919,-0.0664 0.56509,1.33416 1.04579,1.56667 1.55052,0.75 1.27105,-2.05659 2.69515,-1.2825 2.35218,1.27856 -0.36959,2.75982 -1.34148,4.03747 -3.07202,4.03852 -0.64167,3.9e-4 -1.1147,1.26281 -1.05119,2.80537 0.0797,1.93613 -0.29152,2.64848 -1.19881,2.30032 -0.72286,-0.27738 -1.59265,0.3727 -1.93287,1.44464 -0.63905,2.0135 -2.4838,2.7183 -2.4838,0.94897 z m 95,0 c 0,-0.55 0.70156,-1 1.55902,-1 0.85746,0 1.2809,0.45 0.94098,1 -0.33992,0.55 -1.04148,1 -1.55902,1 -0.51754,0 -0.94098,-0.45 -0.94098,-1 z m -286.5,-1 c 0.33992,-0.55 0.81648,-1 1.05902,-1 0.24254,0 0.44098,0.45 0.44098,1 0,0.55 -0.47656,1 -1.05902,1 -0.58246,0 -0.7809,-0.45 -0.44098,-1 z m 280.09516,-0.61262 c -0.5222,-1.36082 -0.89023,-1.40739 -2.35699,-0.29823 -1.47709,1.11697 -1.55042,1.10384 -0.48817,-0.0874 1.97496,-2.21476 1.55087,-4.31372 -0.75,-3.71202 -1.1,0.28765 -2,0.16762 -2,-0.26674 0,-0.43436 0.87094,-1.01751 1.93542,-1.29587 1.79326,-0.46895 3.64087,1.55035 3.22334,3.52286 -0.0873,0.4125 0.2431,0.75 0.73425,0.75 0.49116,0 1.15203,0.675 1.46862,1.5 0.31658,0.825 0.18787,1.5 -0.28603,1.5 -0.47389,0 -1.14009,-0.72568 -1.48044,-1.61263 z M 547.14602,598.862 c -0.007,-1.36352 2.69785,-1.57933 5.48991,-0.43808 l 2.91845,1.19291 -4.2026,-0.0559 c -2.31142,-0.0308 -4.20401,-0.34526 -4.20576,-0.69892 z m 148.56826,-0.42842 c -0.86429,-0.86428 -1.57143,-2.21428 -1.57143,-3 0,-0.85714 -1,-1.42857 -2.5,-1.42857 -1.375,0 -2.5,-0.45 -2.5,-1 0,-1.37807 3.17319,-1.19966 5.0122,0.2818 1.45361,1.17101 4.37475,6.7182 3.53779,6.7182 -0.22392,0 -1.11428,-0.70714 -1.97856,-1.57143 z M 579.39285,596.0087 c -2.4996,-2.02658 -2.90176,-3.13398 -1,-2.75363 1.32537,0.26508 4.19792,3.63732 3.602,4.22859 -0.1936,0.19209 -1.3645,-0.47164 -2.602,-1.47496 z M 410.8027,595.56105 c -0.30476,-0.79421 -2.37791,-1.99044 -4.60698,-2.65829 -2.22908,-0.66784 -4.05287,-1.61959 -4.05287,-2.11499 0,-0.49541 -0.40221,-0.65215 -0.8938,-0.34833 -0.49159,0.30382 -0.82909,-0.56931 -0.75,-1.94028 0.17611,-3.05276 0.47594,-3.12208 1.50237,-0.34737 0.50516,1.36558 1.81336,2.25539 3.59517,2.44537 2.69522,0.28735 7.54626,3.87583 7.54626,5.58222 0,1.38281 -1.74964,0.92051 -2.34015,-0.61833 z m 88.88286,0.51312 c -0.31644,-0.512 -0.19299,-1.1672 0.27431,-1.45601 0.46731,-0.28881 0.84965,0.13009 0.84965,0.9309 0,1.68617 -0.31534,1.83349 -1.12396,0.52511 z m 17.20729,-1.15243 c -2.03766,-2.23172 -2.20716,-3.51609 -0.59549,-4.51216 0.71372,-0.4411 0.88313,-0.27442 0.44371,0.43657 -0.40038,0.64783 0.46934,2.2438 1.99152,3.6545 1.5502,1.43669 2.10713,2.46889 1.30628,2.42109 -0.76781,-0.0458 -2.18352,-0.94584 -3.14602,-2 z m 14.25,1.12817 c 0,-0.45697 0.7118,-1.10401 1.58179,-1.43785 2.19928,-0.84395 2.41821,-0.78236 2.41821,0.68021 0,0.70795 -0.9,1.35499 -2,1.43785 -1.1,0.0829 -2,-0.22324 -2,-0.68021 z m 5.07895,-0.62817 c 0.048,-1.16495 0.28494,-1.4019 0.60416,-0.60417 0.28887,0.72187 0.25335,1.58438 -0.0789,1.91667 -0.3323,0.33229 -0.56864,-0.25834 -0.52522,-1.3125 z m 32.13557,-0.16667 c 0.83848,-0.9625 1.33447,-2.27126 1.10221,-2.90836 -0.23227,-0.6371 0.0784,-1.4678 0.69032,-1.846 0.74867,-0.4627 0.52059,-1.17363 -0.69721,-2.17328 -1.48167,-1.21625 -1.51462,-1.39433 -0.1817,-0.98214 0.89548,0.27692 2.07323,0.0584 2.61722,-0.48558 0.6521,-0.6521 1.20076,-0.43743 1.6104,0.63008 0.36184,0.94293 0.20847,1.364 -0.36721,1.0082 -1.40413,-0.8678 -1.22609,0.8407 0.26145,2.50885 1.05134,1.17899 0.99043,1.20672 -0.38322,0.17448 -1.32391,-0.99487 -1.74408,-0.93839 -2.21861,0.29823 -0.32197,0.83903 -0.0798,1.52552 0.5382,1.52552 0.61798,0 0.30912,0.9 -0.68637,2 -2.22085,2.45401 -4.41452,2.69397 -2.28548,0.25 z m -139.71452,-0.25 c 0.33992,-0.55 0.81648,-1 1.05902,-1 0.24254,0 0.44098,0.45 0.44098,1 0,0.55 -0.47656,1 -1.05902,1 -0.58246,0 -0.7809,-0.45 -0.44098,-1 z m 231.5,0 c 0,-0.55 0.42344,-1 0.94098,-1 0.51754,0 1.2191,0.45 1.55902,1 0.33992,0.55 -0.0835,1 -0.94098,1 -0.85746,0 -1.55902,-0.45 -1.55902,-1 z M 457.7258,594.13929 c -0.43077,-0.69701 -0.51316,-1.53734 -0.18309,-1.86742 0.89497,-0.89496 1.87077,0.4213 1.38739,1.87145 -0.33872,1.01617 -0.57427,1.01538 -1.2043,-0.004 z m 2.55323,-1.35283 c -0.099,-1.97686 -0.54545,-2.56157 -1.63618,-2.14302 -0.93522,0.35888 -1.5,-0.007 -1.5,-0.97236 0,-1.86818 1.63639,-3.06336 2.4319,-1.7762 0.31355,0.50734 1.47633,0.68544 2.58396,0.39579 1.54841,-0.40492 1.87014,-0.15209 1.39201,1.09388 -0.34202,0.89129 -0.99241,1.62052 -1.44531,1.62052 -0.4529,0 -1.01847,1.0125 -1.25683,2.25 -0.37578,1.95105 -0.45146,1.88878 -0.56955,-0.46861 z m 104.32843,0.1071 c -0.42789,-1.34815 -0.0907,-2.69094 0.93261,-3.71428 1.04379,-1.04379 1.60278,-1.17928 1.60278,-0.3885 0,0.66786 -0.3876,1.21429 -0.86133,1.21429 -0.47373,0 -0.64627,1.125 -0.38342,2.5 0.58103,3.03946 -0.35941,3.32254 -1.29064,0.38849 z m 87.02743,-0.50395 c -2.74562,-1.43851 -5.44204,-3.06859 -5.99204,-3.62241 -0.55,-0.55382 0.0477,-0.46721 1.32814,0.19247 1.28048,0.65967 2.99135,0.94491 3.80194,0.63386 0.82831,-0.31785 1.20621,-0.13259 0.86284,0.42299 -0.97253,1.57359 1.13316,1.14403 2.50708,-0.51145 1.60552,-1.93453 3.10537,-1.93818 2.36383,-0.006 -0.31537,0.82184 -0.94515,1.2645 -1.39952,0.98369 -0.45436,-0.28081 -1.08167,-0.0971 -1.39403,0.40833 -0.31235,0.5054 0.78156,1.38933 2.43091,1.96429 1.64934,0.57493 2.99881,1.29376 2.99881,1.59737 0,1.1888 -2.73543,0.43701 -7.50796,-2.06344 z m 12.50796,2.11546 c 0,-0.275 0.8625,-1.3625 1.91667,-2.41667 2.39504,-2.39504 3.69066,-1.4119 1.43052,1.08552 -1.56196,1.72595 -3.34719,2.43592 -3.34719,1.33115 z m 9.56556,-2.37322 c -1.57876,-3.05299 -1.22615,-4.3175 0.96906,-3.47512 0.7365,0.28262 1.11183,1.1061 0.83406,1.82995 -0.27776,0.72385 -0.0243,1.61316 0.56315,1.97626 1.33602,0.82571 1.39939,2.54213 0.0939,2.54213 -0.53588,0 -1.64293,-1.29295 -2.46012,-2.87322 z m 5.07281,1.37322 c 0.31685,-0.82569 0.0299,-1.5 -0.63837,-1.5 -0.66769,0 -0.95952,-0.6631 -0.64852,-1.47355 0.31189,-0.81277 -0.20067,-1.92021 -1.14301,-2.46959 -0.93966,-0.54782 -1.17253,-1.00973 -0.51749,-1.02645 0.65504,-0.0167 1.48806,0.45027 1.85115,1.03776 0.3631,0.5875 1.27524,0.83215 2.027,0.54368 0.75175,-0.28848 1.63279,-0.0942 1.95786,0.43182 0.32508,0.52598 -0.33933,0.95633 -1.47645,0.95633 -1.80845,0 -1.91295,0.24745 -0.83405,1.97504 0.80124,1.28299 1.57508,1.63339 2.20847,1 1.57273,-1.57273 2.93825,-1.11761 1.57504,0.52496 -0.68469,0.825 -2.07567,1.5 -3.09106,1.5 -1.2302,0 -1.65412,-0.50047 -1.27057,-1.5 z m 6.36163,0.66667 c 0,-0.45834 0.675,-0.83334 1.5,-0.83334 0.825,0 1.5,0.375 1.5,0.83334 0,0.45833 -0.675,0.83333 -1.5,0.83333 -0.825,0 -1.5,-0.375 -1.5,-0.83333 z m 21.56476,-0.0619 c -0.3043,-0.49237 0.11914,-1.15325 0.94098,-1.46862 0.90766,-0.3483 1.49426,0.003 1.49426,0.89522 0,1.61739 -1.56262,1.98532 -2.43524,0.5734 z M 432.8531,592.00507 c 0.28766,-1.1 0.69553,-2 0.90638,-2 0.21085,0 0.38337,0.9 0.38337,2 0,1.1 -0.40787,2 -0.90638,2 -0.49851,0 -0.67103,-0.9 -0.38337,-2 z m 17.36364,0.58903 c -0.80051,-0.96456 -0.83925,-1.61601 -0.12245,-2.05902 0.57671,-0.35642 1.08299,-0.50899 1.12507,-0.33903 0.44889,1.81298 0.6886,3.80902 0.45745,3.80902 -0.15899,0 -0.81602,-0.63494 -1.46007,-1.41097 z m 79.92611,0.59231 c 0,-1.58288 2.70623,-4.46569 3.29613,-3.51121 0.33078,0.53521 -0.27553,1.72398 -1.34736,2.6417 -1.07182,0.91773 -1.94877,1.30901 -1.94877,0.86951 z m 60.5,-0.18134 c -0.33992,-0.55 0.33508,-1 1.5,-1 1.16492,0 1.83992,0.45 1.5,1 -0.33992,0.55 -1.01492,1 -1.5,1 -0.48508,0 -1.16008,-0.45 -1.5,-1 z m 7.5,0.059 c 0,-0.51754 0.45734,-1.22363 1.01631,-1.5691 0.55897,-0.34546 0.7217,-1.10481 0.36162,-1.68743 -0.4142,-0.67019 -0.98945,-0.46114 -1.566,0.5691 -1.15924,2.07144 -2.42537,2.07816 -3.21628,0.0171 -0.449,-1.17007 -0.19022,-1.44706 0.94495,-1.01146 1.01593,0.38985 1.31528,0.19862 0.85497,-0.54618 -0.49304,-0.79775 0.023,-0.95038 1.69806,-0.5022 1.3235,0.35413 2.73422,0.65001 3.13493,0.65752 1.02031,0.0191 -1.35965,5.01366 -2.38908,5.01366 -0.46171,0 -0.83948,-0.42344 -0.83948,-0.94098 z m 6.5,-0.059 c -0.33992,-0.55 -0.14148,-1 0.44098,-1 0.58246,0 1.05902,0.45 1.05902,1 0,0.55 -0.19844,1 -0.44098,1 -0.24254,0 -0.7191,-0.45 -1.05902,-1 z m 92.5,-0.16667 c 0,-0.64166 0.2961,-0.87057 0.65799,-0.50867 0.3619,0.36189 1.3744,0.0994 2.25,-0.58334 1.40859,-1.0983 1.43388,-1.03969 0.21957,0.50868 -1.57276,2.00542 -3.12756,2.29541 -3.12756,0.58333 z m 28,0.27366 c 0,-0.49116 0.73865,-1.17646 1.64144,-1.52289 1.37248,-0.52667 1.43434,-0.38034 0.37756,0.89301 -1.44013,1.73524 -2.019,1.91584 -2.019,0.62988 z m -270.1755,-2.78117 c 0.42673,-2.09296 0.67819,-2.34442 0.96961,-0.9696 0.2164,1.02092 -0.0429,2.29254 -0.57615,2.82582 -0.62614,0.62614 -0.76551,-0.0314 -0.39346,-1.85622 z m 14.1755,1.67418 c 0,-0.55 0.47656,-1 1.05902,-1 0.58246,0 0.7809,0.45 0.44098,1 -0.33992,0.55 -0.81648,1 -1.05902,1 -0.24254,0 -0.44098,-0.45 -0.44098,-1 z m 33.55279,0.0854 c -0.59685,-0.96572 0.12619,-1.60804 4.31152,-3.83014 2.82555,-1.50016 4.3974,-1.6379 1.86466,-0.1634 -0.97407,0.56708 -1.53595,1.41143 -1.24862,1.87633 0.28732,0.46491 -0.44858,0.59136 -1.63534,0.28102 -1.4091,-0.36849 -1.92436,-0.18663 -1.48507,0.52416 0.36998,0.59863 0.24644,1.35186 -0.27453,1.67383 -0.52097,0.32198 -1.21065,0.15917 -1.53262,-0.3618 z m 79.709,-1.33541 c 0.2242,-2.11769 3.4119,-4.40964 4.55006,-3.27148 0.28682,0.28681 0.0106,0.52148 -0.6138,0.52148 -0.6244,0 -0.88716,0.64659 -0.58391,1.43686 0.30326,0.79027 1.07664,1.31402 1.71862,1.16389 0.64198,-0.15013 0.82694,-0.0833 0.41101,0.14856 -0.41593,0.23183 -0.44205,0.94558 -0.058,1.5861 0.384,0.64053 -0.13637,0.48959 -1.15639,-0.33541 -1.41414,-1.14376 -1.9545,-1.20314 -2.27529,-0.25 -0.71892,2.136 -2.24327,1.37087 -1.99226,-1 z m 136.55071,1.56689 c 0.72187,-0.28887 1.58438,-0.25335 1.91667,0.0789 0.33229,0.33229 -0.25834,0.56864 -1.3125,0.52522 -1.16495,-0.048 -1.4019,-0.28494 -0.60417,-0.60417 z m 13.23525,-0.26622 c -0.79874,-0.50529 -1.81124,-0.69684 -2.25,-0.42567 -0.43876,0.27117 -0.79775,0.043 -0.79775,-0.50697 0,-1.91181 1.52397,-1.92191 3.86578,-0.0256 2.40054,1.94384 1.81822,2.62598 -0.81803,0.95827 z m -295.54775,-1.05067 c -1.19001,-0.51136 -1.4244,-0.88789 -0.57874,-0.92971 0.78169,-0.0387 2.26578,-0.83457 3.29797,-1.76869 2.43853,-2.20684 4.50225,-2.46979 5.19594,-0.66206 0.41638,1.08506 0.15076,1.21692 -1.07244,0.53239 -2.07225,-1.15969 -6.0299,1.77278 -4.07153,3.01684 1.61921,1.02861 -0.23159,0.90254 -2.7712,-0.18877 z m 141,0 c -0.39915,-0.64585 -0.27574,-1.62427 0.27426,-2.17426 0.66667,-0.66667 1.24192,-0.60858 1.72574,0.17426 0.39915,0.64585 0.27574,1.62427 -0.27426,2.17427 -0.66667,0.66666 -1.24192,0.60857 -1.72574,-0.17427 z m 30.76224,0.30832 c 0.96924,-0.25283 1.46221,-0.94516 1.09549,-1.53851 -0.3964,-0.6414 -0.19863,-0.78952 0.48776,-0.3653 1.92197,1.18784 1.29679,2.60283 -1.09549,2.47949 -1.71224,-0.0883 -1.82881,-0.22587 -0.48776,-0.57568 z m 104.23776,-0.30832 c -0.33992,-0.55 -0.14148,-1 0.44098,-1 0.58246,0 1.05902,0.45 1.05902,1 0,0.55 -0.19844,1 -0.44098,1 -0.24254,0 -0.7191,-0.45 -1.05902,-1 z m -302.78351,-0.61684 c -0.39647,-0.39647 0.0497,-1.57235 0.99156,-2.61306 1.47708,-1.63215 1.51174,-2.01914 0.25219,-2.81584 -0.80313,-0.508 -1.01024,-0.92363 -0.46024,-0.92363 1.97483,0 3.77771,1.6797 2.59045,2.41347 -0.61769,0.38175 -0.85964,1.12034 -0.53766,1.64131 0.32197,0.52097 1.00431,0.68832 1.51631,0.37189 0.51199,-0.31644 0.9309,-0.0988 0.9309,0.48368 0,1.42698 -1.70479,1.3457 -2.61349,-0.1246 -0.51167,-0.82791 -0.91449,-0.66201 -1.34034,0.552 -0.33485,0.9546 -0.93321,1.41125 -1.32968,1.01478 z m 42.92188,-0.88316 c -0.31658,-0.825 -0.13972,-1.5 0.39301,-1.5 0.53274,0 0.96862,0.675 0.96862,1.5 0,0.825 -0.17685,1.5 -0.39301,1.5 -0.21616,0 -0.65203,-0.675 -0.96862,-1.5 z m 35.76662,-0.64551 c -1.88741,-2.12571 -1.88544,-2.13526 0.21353,-1.03518 1.16518,0.61068 2.42647,0.80237 2.80285,0.42599 0.37638,-0.37639 0.38741,0.0895 0.0245,1.03518 -0.82298,2.14467 -0.74922,2.155 -3.04087,-0.42599 z m 194.59501,1.24395 c 0,-1.03844 1.90221,-2.54172 2.46567,-1.94858 0.18294,0.19258 -0.297,0.93038 -1.06653,1.63957 -0.76953,0.70918 -1.39914,0.84824 -1.39914,0.30901 z m 5,0.0196 c 0,-0.55 0.45,-1.27811 1,-1.61803 0.55,-0.33992 1,-0.16803 1,0.38197 0,0.55 -0.45,1.27811 -1,1.61803 -0.55,0.33992 -1,0.16803 -1,-0.38197 z m 3,-0.52441 c 0,-0.93306 0.70155,-1.22292 2.08453,-0.86126 1.58486,0.41445 1.76464,0.7479 0.75,1.39107 -1.94331,1.23185 -2.83453,1.06527 -2.83453,-0.52981 z m 6,0.34736 c 0,-0.58246 0.45,-0.7809 1,-0.44098 0.55,0.33992 1,0.81648 1,1.05902 0,0.24254 -0.45,0.44098 -1,0.44098 -0.55,0 -1,-0.47656 -1,-1.05902 z M 423.6904,589.08201 c -0.31377,-0.50769 -1.88423,-1.21161 -3.48992,-1.56428 -1.60569,-0.35267 -3.51303,-1.39979 -4.23853,-2.32694 -1.16601,-1.49007 -1.12821,-1.53657 0.32564,-0.40063 0.90461,0.70679 2.02961,1.216 2.5,1.13158 2.46765,-0.44291 5.39487,0.21023 4.85526,1.08333 -0.33992,0.55 0.33508,1 1.5,1 1.16492,0 1.83992,0.45 1.5,1 -0.77403,1.25241 -2.20296,1.28964 -2.95245,0.0769 z m 90.5314,-0.66027 c 0.048,-1.16495 0.28494,-1.4019 0.60416,-0.60417 0.28887,0.72187 0.25335,1.58438 -0.0789,1.91667 -0.3323,0.33229 -0.56864,-0.25834 -0.52522,-1.3125 z m 40.2901,0.37146 c -0.26337,-0.42615 0.67085,-0.67966 2.07605,-0.56336 1.40519,0.11629 2.5549,0.53533 2.5549,0.93119 0,0.94862 -4.0144,0.62976 -4.63095,-0.36783 z m 36.80512,-0.39087 c 0.89617,-0.89617 2.10889,-1.46467 2.69493,-1.26333 0.58604,0.20134 -0.1472,0.93457 -1.62941,1.62941 -2.49062,1.16755 -2.5714,1.1398 -1.06552,-0.36608 z M 393.3009,588.12391 c -0.97937,-0.62073 -0.63927,-0.98486 1.25874,-1.34768 2.10994,-0.40335 2.38724,-0.23996 1.46951,0.86584 -1.3232,1.59436 -1.04927,1.54598 -2.72825,0.48184 z m 4.9209,-0.70217 c 0.048,-1.16495 0.28494,-1.4019 0.60416,-0.60417 0.28887,0.72187 0.25335,1.58438 -0.0789,1.91667 -0.33229,0.33229 -0.56864,-0.25834 -0.52522,-1.3125 z m 48.42813,0.59478 c -0.35034,-0.56686 0.0511,-0.7345 0.94098,-0.39301 1.73242,0.66479 2.04939,1.38156 0.61096,1.38156 -0.51754,0 -1.21592,-0.44485 -1.55194,-0.98855 z m 53.31088,-0.22941 c 0.53328,-0.53328 1.8049,-0.79255 2.82582,-0.57615 1.37482,0.29142 1.12336,0.54288 -0.9696,0.96961 -1.82482,0.37205 -2.48236,0.23268 -1.85622,-0.39346 z m 22.72475,0.28706 c -0.31644,-0.512 -0.19299,-1.1672 0.27431,-1.45601 0.46731,-0.28881 0.84965,0.13009 0.84965,0.9309 0,1.68617 -0.31534,1.83349 -1.12396,0.52511 z m 2.45729,-0.0691 c 0,-0.55 0.47656,-1 1.05902,-1 0.58246,0 0.7809,0.45 0.44098,1 -0.33992,0.55 -0.81648,1 -1.05902,1 -0.24254,0 -0.44098,-0.45 -0.44098,-1 z m 12.41459,-0.1382 c -0.43129,-0.69784 -0.29172,-0.9039 0.34549,-0.51008 0.58801,0.36341 1.29701,0.0954 1.57556,-0.59549 0.3625,-0.89914 0.52891,-0.91769 0.58541,-0.0652 0.11408,1.72088 -1.6556,2.54754 -2.50646,1.17082 z m 82.39791,0.45509 c 0.72187,-0.28887 1.58437,-0.25335 1.91667,0.0789 0.33229,0.33229 -0.25834,0.56864 -1.3125,0.52522 -1.16495,-0.048 -1.4019,-0.28494 -0.60417,-0.60417 z m -214.27011,-1.38548 c 0.32769,-0.53022 1.01471,-0.70514 1.52671,-0.38871 0.51199,0.31644 0.9309,0.0722 0.9309,-0.5427 0,-0.61492 0.47994,-0.82141 1.06653,-0.45888 1.355,0.83743 0.77483,1.41168 -1.95793,1.93797 -1.22337,0.2356 -1.90335,-0.002 -1.56621,-0.54768 z m 58.45761,0.0686 c -0.90129,-0.58246 -1.02463,-0.97549 -0.30902,-0.98469 0.65504,-0.008 1.4691,0.43469 1.80902,0.98469 0.76731,1.24153 0.42112,1.24153 -1.5,0 z m 30,-0.75 c 0,-0.77917 0.53437,-1.23854 1.1875,-1.02083 1.8131,0.60436 2.06901,2.4375 0.34028,2.4375 -0.84028,0 -1.52778,-0.6375 -1.52778,-1.41667 z m 34.75,1.08772 c 0.6875,-0.27741 1.8125,-0.27741 2.5,0 0.6875,0.27741 0.125,0.50438 -1.25,0.50438 -1.375,0 -1.9375,-0.22697 -1.25,-0.50438 z m 17.8513,-0.17381 c -0.25451,-0.4118 0.40608,-0.81418 1.46798,-0.89417 2.29656,-0.173 2.4986,0.29836 0.46275,1.0796 -0.80739,0.30982 -1.67622,0.22638 -1.93073,-0.18543 z m 56.2112,0.15298 c 0.72187,-0.28887 1.58437,-0.25335 1.91667,0.0789 0.33229,0.33229 -0.25834,0.56864 -1.3125,0.52522 -1.16495,-0.048 -1.4019,-0.28494 -0.60417,-0.60417 z m 62,0 c 0.72187,-0.28887 1.58438,-0.25335 1.91667,0.0789 0.33229,0.33229 -0.25834,0.56864 -1.3125,0.52522 -1.16495,-0.048 -1.4019,-0.28494 -0.60417,-0.60417 z m -193,-1 c 0.72188,-0.28887 1.58437,-0.25335 1.91667,0.0789 0.33229,0.33229 -0.25834,0.56864 -1.3125,0.52522 -1.16495,-0.048 -1.4019,-0.28494 -0.60417,-0.60417 z m 237.1875,-10.37591 c 0,-0.58246 -0.45345,-0.77877 -1.00767,-0.43624 -0.55422,0.34253 -1.69088,-0.0604 -2.52591,-0.89547 -1.35766,-1.35765 -1.22942,-1.66957 1.21246,-2.949 4.29197,-2.24879 9.462,0.87571 7.28297,4.40145 -0.46921,0.7592 -1.20204,1.03142 -1.62852,0.60495 -0.42647,-0.42648 -0.21317,-1.1229 0.47401,-1.5476 0.88706,-0.54823 0.56193,-1.08542 -1.12105,-1.85224 -1.52095,-0.69299 -2.87503,-0.7402 -3.77838,-0.13174 -1.18697,0.79949 -1.17252,0.92317 0.0921,0.78813 3.00904,-0.32133 3.92511,0.10836 3.36163,1.57678 -0.65779,1.71413 -2.36164,2.03229 -2.36164,0.44098 z m -10.97104,-0.90192 c -0.80907,-0.51167 -1.25907,-1.14005 -1,-1.39638 0.77353,-0.76537 5.97104,0.51759 5.97104,1.4739 0,1.15583 -3.0972,1.10753 -4.97104,-0.0775 z m 17.97104,-0.0391 c 0,-0.55 0.47656,-1 1.05902,-1 0.58246,0 0.7809,0.45 0.44098,1 -0.33992,0.55 -0.81648,1 -1.05902,1 -0.24254,0 -0.44098,-0.45 -0.44098,-1 z m 3,0.18677 c 0,-1.0158 8.56181,-0.95931 9.58376,0.0632 0.41227,0.4125 -1.57543,0.75 -4.41709,0.75 -2.84167,0 -5.16667,-0.36595 -5.16667,-0.81323 z m -55.76204,-0.75806 c 0.37234,-0.37235 -0.31637,-1.51637 -1.53048,-2.54226 -2.17931,-1.84147 -2.16464,-1.84465 1.14952,-0.24924 2.50213,1.2045 4.66667,1.43693 8.5,0.91271 2.82865,-0.38682 6.6328,-0.84513 8.45367,-1.01846 1.82087,-0.17333 3.94406,-1.15132 4.7182,-2.1733 1.30099,-1.71752 1.40993,-1.72571 1.43933,-0.10816 0.0185,1.01874 0.79788,1.75 1.86513,1.75 1.00834,0 1.83334,0.675 1.83334,1.5 0,0.96438 -0.92247,1.4749 -2.58334,1.42972 -2.36973,-0.0645 -2.41796,-0.14674 -0.58333,-0.99487 1.39484,-0.64481 0.4871,-0.76289 -3,-0.39023 -2.75,0.29389 -7.925,0.75295 -11.5,1.02014 -3.575,0.26718 -7.16128,0.7232 -7.96952,1.01337 -0.80823,0.29017 -1.16487,0.22293 -0.79252,-0.14942 z m -272.23796,-2.00049 c 0,-0.96558 1.13374,-1.42822 3.5,-1.42822 1.925,0 3.5,0.46583 3.5,1.03518 0,0.69833 0.65755,0.68328 2.02067,-0.0462 1.11136,-0.59478 2.45621,-0.81224 2.98854,-0.48324 0.53234,0.329 0.72996,-0.0218 0.43916,-0.77964 -0.4374,-1.13985 1.85307,-1.31535 13.26146,-1.01609 7.58459,0.19895 15.33378,0.33949 17.22041,0.31231 1.88663,-0.0272 3.17498,0.20584 2.863,0.51782 -0.31198,0.31198 -6.80559,0.77828 -14.43024,1.03622 -7.62465,0.25793 -15.663,0.66809 -17.863,0.91146 -12.55654,1.38904 -13.5,1.38488 -13.5,-0.0596 z m 79.30618,0.84306 c -0.65661,-0.22027 -0.97368,-0.97419 -0.70461,-1.67538 0.34199,-0.89119 2.50705,-1.20585 7.19383,-1.0455 3.68753,0.12617 7.24739,-0.2098 7.91079,-0.74659 1.2957,-1.0484 3.29381,-0.28696 3.29381,1.25521 0,0.51754 -2.1375,0.95171 -4.75,0.96484 -2.6125,0.0131 -6.325,0.38927 -8.25,0.83589 -1.925,0.44661 -4.03722,0.6318 -4.69382,0.41153 z m 49.50632,0.0456 c 0.72187,-0.28887 1.58437,-0.25334 1.91667,0.0789 0.33229,0.33229 -0.25834,0.56864 -1.3125,0.52522 -1.16495,-0.048 -1.4019,-0.28494 -0.60417,-0.60417 z m 84.01476,0.17704 c -0.32905,-0.32905 -6.8373,-0.77698 -14.46277,-0.9954 -17.15656,-0.49142 -16.1554,-0.39246 -14.36449,-1.41985 1.65126,-0.94728 27.89794,-0.87048 29.5,0.0863 0.55,0.32847 2.91288,0.53823 5.25084,0.46611 2.44124,-0.0753 4.11078,0.29459 3.92183,0.86888 -0.36078,1.09656 -8.88248,1.95685 -9.84541,0.99393 z m 19.80184,-0.19816 c -0.33386,-0.33386 -2.29948,-0.93523 -4.36806,-1.33639 -3.4008,-0.65952 -3.13846,-0.75747 2.73896,-1.02266 3.575,-0.1613 7.2875,-0.28982 8.25,-0.28559 0.9625,0.004 1.75,-0.36555 1.75,-0.82172 0,-0.45618 0.375,-0.82941 0.83333,-0.82941 0.45834,0 0.83334,0.675 0.83334,1.5 0,0.825 -0.2211,1.2789 -0.49133,1.00868 -0.27023,-0.27023 -0.98273,-0.10855 -1.58333,0.35928 -1.48137,1.15391 -7.20969,2.18103 -7.96291,1.42781 z m 33.92515,-0.20798 c -0.31008,-0.50172 0.10034,-0.81474 0.91204,-0.69561 2.14123,0.31426 3.15446,1.60782 1.25939,1.60782 -0.8842,0 -1.86135,-0.4105 -2.17143,-0.91221 z m 75.25825,0.2291 c 0.72187,-0.28887 1.58438,-0.25334 1.91667,0.0789 0.33229,0.33229 -0.25834,0.56864 -1.3125,0.52522 -1.16495,-0.048 -1.4019,-0.28494 -0.60417,-0.60417 z m -291.57256,-1.4322 c -0.95697,-0.34893 -1.98403,-0.49691 -2.28235,-0.32884 -0.29833,0.16808 -0.61051,-0.5984 -0.69374,-1.70327 -0.14642,-1.94377 -0.0657,-1.95276 2.49129,-0.27736 1.88563,1.23551 2.75673,1.38916 3.04099,0.53641 0.29615,-0.88846 0.74485,-0.90754 1.74876,-0.0744 0.90723,0.75293 1.92087,0.80147 3.08872,0.14791 1.73466,-0.97077 6.36639,0.35083 6.36639,1.81656 0,0.84589 -11.38474,0.74906 -13.76006,-0.11704 z m 15.25545,-0.89921 c -0.35166,-1.10799 -1.05698,-1.75643 -1.56739,-1.44098 -0.5104,0.31544 -0.928,0.0488 -0.928,-0.59247 0,-0.6413 0.62016,-0.92803 1.37815,-0.63716 0.75797,0.29086 1.92058,0.002 2.58357,-0.64301 0.93077,-0.90485 1.12942,-0.72157 0.87185,0.80442 -0.2032,1.20386 0.25269,2.02372 1.16643,2.09768 6.74174,0.54568 6.63064,0.51047 4.5,1.42604 -3.72157,1.59921 -7.31978,1.14317 -8.00461,-1.01452 z m 77.85035,0.9062 c -1.01516,-0.38592 -2.74574,-0.50138 -3.84574,-0.25659 -1.1,0.24479 -3.8,-0.25607 -6,-1.11302 l -4,-1.55809 3.75,0.45514 c 2.12826,0.25831 3.75,0.0243 3.75,-0.54101 0,-0.54788 0.45734,-0.71349 1.01631,-0.36803 0.55897,0.34547 0.72134,1.1054 0.36081,1.68875 -0.38078,0.61611 -0.0733,0.84909 0.73368,0.5559 0.76406,-0.2776 1.27358,-1.02034 1.13227,-1.65052 -0.1746,-0.77863 0.62651,-0.91104 2.5,-0.41322 1.51631,0.40291 3.72646,0.74977 4.91144,0.77079 1.18498,0.021 1.91618,0.42384 1.62489,0.89515 -0.29128,0.47132 0.76419,0.59286 2.34549,0.27009 1.58131,-0.32277 5.46104,-0.70839 8.62161,-0.85693 3.16058,-0.14855 5.74808,-0.60759 5.75,-1.02009 0.002,-0.4125 0.48006,-0.75 1.06252,-0.75 0.58246,0 0.7809,0.45 0.44098,1 -0.35052,0.56716 0.48962,1 1.94098,1 2.78278,0 3.45102,1.44373 1.08796,2.35052 -0.80908,0.31048 -2.0576,-0.022 -2.77449,-0.73892 -1.37243,-1.37244 -4.5799,-1.23796 -8.75445,0.36705 -2.76966,1.06486 -12.77048,1.0093 -15.65426,-0.087 z m 29.77026,0.26269 c -0.0638,-0.7401 -1.08355,-2.7651 -2.26612,-4.5 l -2.15012,-3.15437 2.74831,2.62091 c 1.73584,1.65539 2.57067,3.31316 2.26612,4.5 -0.2652,1.0335 -0.53439,1.27356 -0.59819,0.53346 z m 82.10922,-0.01 c 0.15113,-0.55202 -0.62522,-1.71778 -1.72522,-2.59054 -1.89724,-1.5053 -1.8587,-1.52637 0.75,-0.41007 2.88771,1.2357 3.4386,2.31213 1.72522,3.37105 -0.56362,0.34834 -0.90112,0.18166 -0.75,-0.3704 z m -157.22522,-1.14487 c 0,-0.55 0.5051,-1 1.12245,-1 0.7755,0 0.73765,-0.46364 -0.12245,-1.5 -0.69443,-0.83674 -0.80272,-1.5 -0.24489,-1.5 0.55,0 1.538,0.64825 2.19556,1.44056 0.65756,0.79231 1.76266,1.22294 2.45578,0.95697 0.69312,-0.26598 1.26022,0.18646 1.26022,1.00542 0,1.11549 -0.44469,1.25103 -1.77265,0.54033 -1.14128,-0.6108 -1.99336,-0.59156 -2.39235,0.054 -0.80102,1.29608 -2.50167,1.29792 -2.50167,0.003 z m 12.69382,0.32496 c 0.65661,-0.24979 0.94596,-1.1001 0.64301,-1.88957 -0.68298,-1.77981 0.6005,-1.79891 2.91317,-0.0434 2.47234,1.87678 2.20309,2.29778 -1.5,2.34535 -1.7875,0.023 -2.71278,-0.16263 -2.05618,-0.41243 z m 150.80618,-0.32496 c 0.33992,-0.55 0.81648,-1 1.05902,-1 0.24254,0 0.44098,0.45 0.44098,1 0,0.55 -0.47656,1 -1.05902,1 -0.58246,0 -0.7809,-0.45 -0.44098,-1 z m -155.5,-1.09362 c 0,-0.49851 0.9,-0.90638 2,-0.90638 1.1,0 2,0.17252 2,0.38337 0,0.21085 -0.9,0.61872 -2,0.90638 -1.1,0.28766 -2,0.11514 -2,-0.38337 z m 14,-0.4654 c 0,-0.85746 0.45,-1.2809 1,-0.94098 0.55,0.33992 1,1.04148 1,1.55902 0,0.51754 -0.45,0.94098 -1,0.94098 -0.55,0 -1,-0.70156 -1,-1.55902 z m 128,0 c 0,-0.95693 -0.48274,-1.28647 -1.25,-0.85329 -0.9681,0.54657 -0.98326,0.41717 -0.0672,-0.57377 1.29572,-1.40165 4.79422,-0.59474 3.87437,0.89361 -0.31329,0.50691 -0.004,1.14956 0.68662,1.42811 0.69093,0.27856 0.24373,0.54199 -0.99377,0.58541 -1.40495,0.0493 -2.25,-0.50658 -2.25,-1.48007 z m -134.8,-1.64098 c -1.53085,-1.53085 -1.55337,-3.08445 -0.0374,-2.57912 0.63944,0.21314 1.27462,1.15064 1.41151,2.08333 0.29621,2.01821 0.1875,2.05743 -1.37414,0.49579 z m -18.2,-1.21821 c 0,-0.78002 -0.23608,-2.03342 -0.52462,-2.78534 -0.31829,-0.82946 0.19914,-1.42165 1.31565,-1.50576 1.48619,-0.11195 1.7577,0.42396 1.41112,2.78535 -0.43164,2.94097 -2.20215,4.15158 -2.20215,1.50575 z"
         id="path3064"
         inkscape:connector-curvature="0" />
      <path
         style="fill:#b0b0b0"
         d="m 577.14285,632.94605 c 0,-0.58246 0.45,-0.7809 1,-0.44098 0.55,0.33992 1,0.81648 1,1.05902 0,0.24254 -0.45,0.44098 -1,0.44098 -0.55,0 -1,-0.47656 -1,-1.05902 z m 30.5,-19.94098 c -0.35667,-0.5771 0.5699,-0.99352 2.19098,-0.98469 2.18111,0.0119 2.47372,0.232 1.30902,0.98469 -1.92129,1.24163 -2.73263,1.24163 -3.5,0 z m 6.1283,0.20759 c -0.26936,-0.43583 0.37908,-0.85786 1.44098,-0.93785 1.0619,-0.08 1.93072,0.27659 1.93072,0.79241 0,1.13838 -2.68642,1.25425 -3.3717,0.14544 z m -49.1283,-1.20759 c -0.33992,-0.55 -0.14148,-1 0.44098,-1 0.58246,0 1.05902,0.45 1.05902,1 0,0.55 -0.19844,1 -0.44098,1 -0.24254,0 -0.7191,-0.45 -1.05902,-1 z m 8.5,-0.94098 c 0,-0.51754 0.44485,-1.21592 0.98855,-1.55194 0.56686,-0.35034 0.7345,0.0511 0.39301,0.94098 -0.66479,1.73242 -1.38156,2.04939 -1.38156,0.61096 z m 48,-0.11804 c 0,-0.58246 0.45,-0.7809 1,-0.44098 0.55,0.33992 1,0.81648 1,1.05902 0,0.24254 -0.45,0.44098 -1,0.44098 -0.55,0 -1,-0.47656 -1,-1.05902 z m -6.5,-0.94098 c 0.33992,-0.55 1.29303,-1 2.11803,-1 0.825,0 1.22189,0.45 0.88197,1 -0.33992,0.55 -1.29303,1 -2.11803,1 -0.825,0 -1.22189,-0.45 -0.88197,-1 z m -50.5,-1 c 0,-0.55 0.45,-1 1,-1 0.55,0 1,0.45 1,1 0,0.55 -0.45,1 -1,1 -0.55,0 -1,-0.45 -1,-1 z m 63.5,-1 c 0.99549,-1.1 2.03498,-2 2.30998,-2 0.275,0 -0.31449,0.9 -1.30998,2 -0.99549,1.1 -2.03498,2 -2.30998,2 -0.275,0 0.31449,-0.9 1.30998,-2 z m -63,-2 c -0.33992,-0.55 -0.14148,-1 0.44098,-1 0.58246,0 1.05902,0.45 1.05902,1 0,0.55 -0.19844,1 -0.44098,1 -0.24254,0 -0.7191,-0.45 -1.05902,-1 z m -10.425,-2.325 c -1.58617,-1.58617 -1.30932,-2.67705 0.675,-2.65969 1.36324,0.0119 1.45015,0.20531 0.39324,0.875 -1.77994,1.12783 -0.053,2.17005 2.71312,1.63735 1.179,-0.22705 2.14364,-0.0449 2.14364,0.40476 0,1.20009 -4.6704,0.99718 -5.925,-0.25742 z m 75.925,0.325 c 0,-0.55 0.45,-1 1,-1 0.55,0 1,0.45 1,1 0,0.55 -0.45,1 -1,1 -0.55,0 -1,-0.45 -1,-1 z m 1,-4 c 0,-0.55 0.45,-1 1,-1 0.55,0 1,0.45 1,1 0,0.55 -0.45,1 -1,1 -0.55,0 -1,-0.45 -1,-1 z m -92,-1.5 c -0.71755,-0.86459 -0.81474,-1.5 -0.22943,-1.5 0.5585,0 1.27447,0.675 1.59106,1.5 0.31658,0.825 0.41982,1.5 0.22943,1.5 -0.19039,0 -0.90637,-0.675 -1.59106,-1.5 z m 23.8125,0.81689 c 0.72187,-0.28887 1.58437,-0.25335 1.91667,0.0789 0.33229,0.33229 -0.25834,0.56864 -1.3125,0.52522 -1.16495,-0.048 -1.4019,-0.28494 -0.60417,-0.60417 z m 151.05994,-1.06689 c -1.24387,-1.58606 -1.2085,-1.62143 0.37756,-0.37755 1.66575,1.30636 2.19548,2.12755 1.37244,2.12755 -0.20765,0 -0.99515,-0.7875 -1.75,-1.75 z m -276.87244,-0.25 c 0,-0.55 0.47656,-1 1.05902,-1 0.58246,0 0.7809,0.45 0.44098,1 -0.33992,0.55 -0.81648,1 -1.05902,1 -0.24254,0 -0.44098,-0.45 -0.44098,-1 z m 91.08333,-1.08333 c 1.14584,-1.14584 2.35049,-1.81619 2.677,-1.48967 0.32652,0.32652 -0.27348,1.2497 -1.33333,2.05153 -2.8747,2.17484 -3.72487,1.81934 -1.34367,-0.56186 z m 41.99562,0.5 c 0.048,-1.16495 0.28494,-1.4019 0.60416,-0.60417 0.28887,0.72187 0.25335,1.58438 -0.0789,1.91667 -0.3323,0.33229 -0.56864,-0.25834 -0.52522,-1.3125 z M 459.14285,596.9223 c 0,-0.5832 1.0125,-0.92954 2.25,-0.76965 1.2375,0.15989 2.925,-0.11929 3.75,-0.62039 1.22379,-0.74334 1.28141,-0.64067 0.31289,0.55754 -1.39496,1.72579 -6.31289,2.37433 -6.31289,0.8325 z m 105.31088,-0.61625 c 0.0817,-1.67848 0.41266,-1.94539 1.39808,-1.12756 1.47631,1.22523 1.75007,2.22831 0.37645,1.37937 -0.50302,-0.31089 -1.13216,5e-5 -1.39808,0.69098 -0.26592,0.69093 -0.43532,0.26667 -0.37645,-0.94279 z m 66.68912,0.69902 c -0.90129,-0.58246 -1.02463,-0.97549 -0.30902,-0.98469 0.65504,-0.008 1.4691,0.43469 1.80902,0.98469 0.7673,1.24153 0.42112,1.24153 -1.5,0 z m -175.39699,-0.83333 c -0.28327,-0.45834 0.12038,-0.83334 0.89699,-0.83334 0.77661,0 1.18026,0.375 0.89699,0.83334 -0.28326,0.45833 -0.68691,0.83333 -0.89699,0.83333 -0.21008,0 -0.61373,-0.375 -0.89699,-0.83333 z m 45.39699,-1.10765 c 0,-0.51754 0.44485,-1.21592 0.98855,-1.55194 0.56686,-0.35034 0.7345,0.0511 0.39301,0.94098 -0.66479,1.73242 -1.38156,2.04939 -1.38156,0.61096 z m 35.63837,-0.55902 c -0.31658,-0.825 -0.13972,-1.5 0.39301,-1.5 0.53274,0 0.96862,0.675 0.96862,1.5 0,0.825 -0.17686,1.5 -0.39301,1.5 -0.21616,0 -0.65203,-0.675 -0.96862,-1.5 z m 37.69496,-0.66159 c 0,-0.78442 0.6,-1.98671 1.33334,-2.67174 0.73333,-0.68504 1.33333,-0.86379 1.33333,-0.39723 0,0.46657 -0.6,1.66885 -1.33333,2.67174 -0.96886,1.32499 -1.33334,1.43357 -1.33334,0.39723 z m 59.16667,-0.83841 c 0.99549,-1.1 2.03498,-2 2.30998,-2 0.275,0 -0.31449,0.9 -1.30998,2 -0.99549,1.1 -2.03498,2 -2.30998,2 -0.275,0 0.31449,-0.9 1.30998,-2 z m 83.04793,-0.3743 -2.76314,-2.3743 2.69591,0.29594 c 2.80194,0.30757 4.82268,1.45266 2.56352,1.45266 -1.03249,0 -1.0413,0.2986 -0.0442,1.5 1.85453,2.23458 0.67758,1.81493 -2.45207,-0.8743 z m -250.39406,-0.1744 c 0.19037,-0.98206 0.91988,-1.90161 1.62113,-2.04343 0.70125,-0.14183 0.81095,-0.0282 0.24377,0.25254 -0.56718,0.28073 -0.79609,0.89088 -0.50869,1.3559 0.2874,0.46502 0.0219,1.15488 -0.5899,1.53302 -0.69243,0.42795 -0.98176,0.0134 -0.76631,-1.09803 z m 228.55638,-0.4513 c -0.28766,-1.1 -0.11514,-2 0.38337,-2 0.49851,0 0.90638,0.9 0.90638,2 0,1.1 -0.17252,2 -0.38337,2 -0.21085,0 -0.61872,-0.9 -0.90638,-2 z m 27.62308,0.70025 c 0,-0.71486 0.79941,-1.35997 1.77646,-1.43357 1.1589,-0.0873 1.58522,0.36454 1.22634,1.29975 -0.68663,1.78935 -3.0028,1.89257 -3.0028,0.13382 z m -291.08333,-0.36253 c -0.6875,-0.27741 -1.25,-0.94344 -1.25,-1.48007 0,-0.53663 0.41156,-0.72132 0.91459,-0.41044 0.50302,0.31089 1.13216,-5e-5 1.39808,-0.69098 0.26592,-0.69093 0.43359,-0.24373 0.37261,0.99377 -0.061,1.2375 -0.12763,2.21447 -0.14808,2.17105 -0.0205,-0.0434 -0.5997,-0.30592 -1.2872,-0.58333 z m 147.71365,-0.79391 c 0.66469,-0.80091 0.96458,-1.85091 0.66643,-2.33334 -0.29816,-0.48242 0.1131,-0.87714 0.91391,-0.87714 1.89032,0 1.84812,1.1317 -0.11542,3.09524 -1.97817,1.97818 -3.08317,2.0651 -1.46492,0.11524 z m -71.46365,-0.54381 c 0.33992,-0.55 1.91492,-1 3.5,-1 1.58508,0 3.16008,0.45 3.5,1 0.37381,0.60483 -1.00929,1 -3.5,1 -2.49071,0 -3.87381,-0.39517 -3.5,-1 z m 175.5,0.62245 c 0,-0.20766 0.6853,-0.94631 1.52289,-1.64145 1.27335,-1.05678 1.41968,-0.99492 0.89301,0.37756 -0.53789,1.40173 -2.4159,2.38422 -2.4159,1.26389 z m -55.25,-1.70255 c -0.9625,-0.5606 -1.74311,-1.55942 -1.73469,-2.21959 0.0109,-0.85768 0.25023,-0.82998 0.83827,0.097 0.65732,1.03621 1.08143,0.9859 2.10714,-0.25 1.45661,-1.75511 3.03928,-2.04013 3.03928,-0.54733 0,0.55 -0.5625,0.8875 -1.25,0.75 -0.6875,-0.1375 -1.1875,0.5375 -1.11111,1.5 0.0764,0.9625 0.0764,1.73632 0,1.71959 -0.0764,-0.0167 -0.92639,-0.48908 -1.88889,-1.04969 z m 28.25,0.0211 c 0,-0.58246 0.45,-0.7809 1,-0.44098 0.55,0.33992 1,0.81647 1,1.05901 0,0.24255 -0.45,0.44099 -1,0.44099 -0.55,0 -1,-0.47656 -1,-1.05902 z m 33.5,0.059 c 0.33992,-0.55 0.81648,-1 1.05902,-1 0.24254,0 0.44098,0.45 0.44098,1 0,0.55 -0.47656,1 -1.05902,1 -0.58246,0 -0.7809,-0.45 -0.44098,-1 z m -215.6875,-0.68311 c 0.72188,-0.28887 1.58437,-0.25335 1.91667,0.0789 0.33229,0.33229 -0.25834,0.56864 -1.3125,0.52522 -1.16495,-0.048 -1.4019,-0.28494 -0.60417,-0.60417 z m 5.92083,-0.44098 c 0.67834,-0.68342 1.48524,-0.99067 1.79313,-0.68278 0.30789,0.30789 -0.24711,0.86705 -1.23333,1.24258 -1.4252,0.54268 -1.54006,0.42782 -0.5598,-0.5598 z m 168.26667,-0.37591 c 0,-0.825 0.17686,-1.5 0.39301,-1.5 0.21616,0 0.65203,0.675 0.96862,1.5 0.31658,0.825 0.13972,1.5 -0.39301,1.5 -0.53274,0 -0.96862,-0.675 -0.96862,-1.5 z m 28,0.66667 c 0,-1.4338 1.13601,-2.05171 2.68161,-1.45861 1.21131,0.46483 1.23946,0.7266 0.15224,1.41579 -1.70995,1.08393 -2.83385,1.10091 -2.83385,0.0428 z m 5.60301,0 c -0.28327,-0.45834 0.12038,-0.83334 0.89699,-0.83334 0.77661,0 1.18026,0.375 0.89699,0.83334 -0.28326,0.45833 -0.68691,0.83333 -0.89699,0.83333 -0.21008,0 -0.61373,-0.375 -0.89699,-0.83333 z m -286.10301,-1.16667 c 0.33992,-0.55 0.0665,-1 -0.60765,-1 -0.67413,0 -0.99009,-0.23559 -0.70214,-0.52354 0.74707,-0.74707 3.80979,0.56372 3.80979,1.63053 0,0.49116 -0.70156,0.89301 -1.55902,0.89301 -0.85746,0 -1.2809,-0.45 -0.94098,-1 z m 6.97209,0.0801 c 0.64193,-1.06484 0.43986,-1.26025 -0.80805,-0.78138 -2.28788,0.87794 -2.09785,0.004 0.27527,-1.2662 2.50719,-1.34181 3.57196,0.30839 1.35772,2.10421 -1.43139,1.16091 -1.55386,1.1525 -0.82494,-0.0566 z m 74.0549,-0.0364 c -0.32507,-0.52597 -1.25163,-0.70283 -2.05902,-0.39301 -0.80738,0.30983 -1.46797,0.33832 -1.46797,0.0633 0,-1.31446 2.99192,-1.42864 4.04933,-0.15454 0.65756,0.79231 0.94202,1.44056 0.63213,1.44056 -0.30988,0 -0.8294,-0.43035 -1.15447,-0.95633 z m 30.98009,-0.0322 c -0.3629,-0.58719 0.0858,-0.72119 1.10503,-0.33006 1.22629,0.47057 1.49205,0.29615 0.93126,-0.61122 -0.61933,-1.0021 -0.33776,-1.0305 1.33595,-0.13476 1.16638,0.62422 2.12068,1.34412 2.12068,1.59977 0,0.91257 -4.89361,0.44598 -5.49292,-0.52373 z m 27.99292,-0.0114 c 0.33992,-0.55 0.81648,-1 1.05902,-1 0.24254,0 0.44098,0.45 0.44098,1 0,0.55 -0.47656,1 -1.05902,1 -0.58246,0 -0.7809,-0.45 -0.44098,-1 z m 17,0 c 2.74909,-1.18132 4.32797,-1.18132 2.5,0 -0.825,0.53316 -2.175,0.94464 -3,0.9144 -0.98906,-0.0362 -0.81874,-0.34772 0.5,-0.9144 z m 4.5,0 c 0,-0.55 0.47656,-1 1.05902,-1 0.58246,0 0.7809,0.45 0.44098,1 -0.33992,0.55 -0.81648,1 -1.05902,1 -0.24254,0 -0.44098,-0.45 -0.44098,-1 z m 16.34508,-0.54313 c -0.32569,-0.84872 -0.31156,-1.82372 0.0314,-2.16666 0.34295,-0.34295 0.63043,0.23896 0.63885,1.29312 0.0128,1.60358 0.17367,1.67164 0.98469,0.41667 0.82843,-1.2819 0.9716,-1.24555 0.98469,0.25 0.0189,2.16218 -1.83358,2.30737 -2.63961,0.20687 z m 16.65492,0.95277 c 0,-0.0906 0.76138,-0.78235 1.69196,-1.53719 0.93058,-0.75485 1.37777,-0.84839 0.99377,-0.20786 -0.38401,0.64052 -0.13289,1.38216 0.55804,1.64808 0.69093,0.26592 0.24373,0.43359 -0.99377,0.37261 -1.2375,-0.061 -2.25,-0.18503 -2.25,-0.27564 z m -148.66667,-1.86565 c 0,-0.80081 0.38234,-1.21971 0.84965,-0.9309 0.4673,0.28881 0.59075,0.94401 0.27431,1.45601 -0.80862,1.30838 -1.12396,1.16106 -1.12396,-0.52511 z m 106.12555,0.38948 c -0.36253,-0.58659 -0.44468,-1.281 -0.18255,-1.54313 0.26212,-0.26213 0.74306,0.21781 1.06875,1.06653 0.67618,1.76211 0.0999,2.07206 -0.8862,0.4766 z m -7.95888,-0.93347 c -0.33992,-0.55 -0.14148,-1 0.44098,-1 0.58246,0 1.05902,0.45 1.05902,1 0,0.55 -0.19844,1 -0.44098,1 -0.24254,0 -0.7191,-0.45 -1.05902,-1 z m 30.3125,0.31689 c 0.72187,-0.28887 1.58437,-0.25335 1.91667,0.0789 0.33229,0.33229 -0.25834,0.56864 -1.3125,0.52522 -1.16495,-0.048 -1.4019,-0.28494 -0.60417,-0.60417 z m -155.8125,-1.15022 c 0,-0.45834 0.65521,-0.83334 1.45601,-0.83334 0.80081,0 1.22425,0.375 0.94098,0.83334 -0.28326,0.45833 -0.93847,0.83333 -1.45601,0.83333 -0.51754,0 -0.94098,-0.375 -0.94098,-0.83333 z m 292,-8.55968 c 0,-0.21616 0.675,-0.65203 1.5,-0.96862 0.825,-0.31658 1.5,-0.13972 1.5,0.39302 0,0.53273 -0.675,0.96861 -1.5,0.96861 -0.825,0 -1.5,-0.17686 -1.5,-0.39301 z m 19.8125,-0.2901 c 0.72187,-0.28887 1.58438,-0.25335 1.91667,0.0789 0.33229,0.33229 -0.25834,0.56864 -1.3125,0.52522 -1.16495,-0.048 -1.4019,-0.28494 -0.60417,-0.60417 z m 5.64638,-0.38342 c -0.36253,-0.58659 -0.38909,-1.33659 -0.059,-1.66667 0.33008,-0.33007 0.60014,-0.02 0.60014,0.68898 0,1.03249 0.2986,1.0413 1.5,0.0442 1.22851,-1.01957 1.5,-0.95124 1.5,0.37755 0,1.81339 -2.51951,2.20892 -3.54112,0.55592 z m -17.9518,-0.92202 c -0.35034,-0.56686 0.0511,-0.7345 0.94098,-0.39301 1.73242,0.66479 2.04939,1.38156 0.61096,1.38156 -0.51754,0 -1.21592,-0.44485 -1.55194,-0.98855 z m -103.69458,-0.69456 c 0.72187,-0.28887 1.58437,-0.25335 1.91667,0.0789 0.33229,0.33229 -0.25834,0.56864 -1.3125,0.52522 -1.16495,-0.048 -1.4019,-0.28494 -0.60417,-0.60417 z m 40.94373,0.0188 c 0.69093,-0.27856 1.06147,-0.8216 0.82342,-1.20677 -0.23805,-0.38517 0.46438,-0.7003 1.56096,-0.7003 1.86961,0 1.88427,0.0801 0.23545,1.28571 -0.96708,0.70714 -2.23481,1.25019 -2.81719,1.20677 -0.58238,-0.0434 -0.49357,-0.30686 0.19736,-0.58541 z m 10.87946,-0.84181 c -3.30963,-1.72609 -5.02377,-1.93078 -4.13569,-0.49384 0.33992,0.55 0.14148,1 -0.44098,1 -1.22546,0 -1.34734,-1.05135 -0.29371,-2.53346 1.08074,-1.52024 2.42691,-1.22748 5.75599,1.25178 3.47874,2.59072 3.14882,2.87962 -0.88561,0.77552 z m 5.63334,0.81317 c 0.97297,-0.25354 2.32297,-0.23687 3,0.037 0.67703,0.27393 -0.11903,0.48137 -1.76903,0.46099 -1.65,-0.0204 -2.20394,-0.2445 -1.23097,-0.49804 z m 6.73097,-0.30701 c -0.90129,-0.58246 -1.02463,-0.97549 -0.30902,-0.98469 0.65504,-0.008 1.4691,0.43469 1.80902,0.98469 0.7673,1.24153 0.42112,1.24153 -1.5,0 z m 15.33333,-0.38705 c 0,-1.64338 2.88585,-1.45542 3.44579,0.22442 0.21315,0.63945 -0.47495,1.16263 -1.52912,1.16263 -1.05417,0 -1.91667,-0.62418 -1.91667,-1.38705 z m 4.66667,0.41844 c 0,-0.53274 0.675,-0.7096 1.5,-0.39302 0.825,0.31659 1.5,0.75246 1.5,0.96862 0,0.21615 -0.675,0.39301 -1.5,0.39301 -0.825,0 -1.5,-0.43588 -1.5,-0.96861 z m -296.45468,-1.10472 c 0.41531,-0.67199 5.45468,-0.0199 5.45468,0.70579 0,0.21962 -1.31887,0.29882 -2.93081,0.17599 -1.61195,-0.12283 -2.74769,-0.51963 -2.52387,-0.88178 z m 8.78801,-0.42667 c 0,-0.61191 1.40815,-0.89509 3.33334,-0.67034 1.83333,0.21403 3.33333,0.51569 3.33333,0.67034 0,0.15465 -1.5,0.45631 -3.33333,0.67034 -1.92519,0.22475 -3.33334,-0.0584 -3.33334,-0.67034 z m 116.41667,0.83772 c 0.6875,-0.27741 1.8125,-0.27741 2.5,0 0.6875,0.27741 0.125,0.50438 -1.25,0.50438 -1.375,0 -1.9375,-0.22697 -1.25,-0.50438 z m 15.93181,-0.72453 c -0.37259,-0.97095 0.0418,-1.23673 1.38176,-0.88632 1.05266,0.27528 1.66744,0.89935 1.36617,1.38682 -0.81352,1.3163 -2.14373,1.07402 -2.74793,-0.5005 z m 7.13069,0.7037 c 0.72187,-0.28887 1.58437,-0.25335 1.91667,0.0789 0.33229,0.33229 -0.25834,0.56864 -1.3125,0.52522 -1.16495,-0.048 -1.4019,-0.28494 -0.60417,-0.60417 z m 4.76061,-0.21231 c -1.78807,-0.70047 -1.80019,-0.80346 -0.16821,-1.42971 0.96727,-0.37118 2.75687,-0.67487 3.97689,-0.67487 1.22001,0 2.82423,-0.5625 3.56491,-1.25 1.08634,-1.00833 1.19691,-0.98671 0.57189,0.1118 -0.45668,0.80266 -0.20897,1.75339 0.60329,2.31551 0.98965,0.68487 0.7676,0.78283 -0.78772,0.34752 -1.19122,-0.3334 -2.45527,-0.13788 -2.80902,0.43449 -0.73416,1.1879 -2.18208,1.23038 -4.95203,0.14526 z m 11.59304,0.0183 c -1.07383,-0.67995 -1.0251,-0.96305 0.25,-1.45236 0.89954,-0.34518 1.61422,-0.0813 1.65414,0.61084 0.0386,0.67024 0.48483,0.31861 0.99151,-0.78139 0.86329,-1.87422 0.90603,-1.87943 0.67971,-0.0829 -0.28131,2.23311 -1.68495,2.90277 -3.57536,1.70578 z m 13.4188,0.0129 c -0.21554,-0.34968 3.05217,-0.78645 7.26158,-0.9706 4.20941,-0.18416 7.42847,-0.13121 7.15347,0.11767 -0.83524,0.7559 -13.9949,1.53455 -14.41505,0.85293 z m 20.41505,-0.1948 c 0,-0.58246 0.45,-0.7809 1,-0.44098 0.55,0.33992 1,0.81648 1,1.05902 0,0.24254 -0.45,0.44098 -1,0.44098 -0.55,0 -1,-0.47656 -1,-1.05902 z m 20.85325,-0.19423 c 0.50384,-0.50384 1.98048,-0.74864 3.28141,-0.54399 2.00169,0.31487 1.86084,0.45571 -0.91608,0.91608 -1.98722,0.32944 -2.92011,0.18269 -2.36533,-0.37209 z m 14.14675,0.25325 c 0,-0.55 0.47656,-1 1.05902,-1 0.58246,0 0.7809,0.45 0.44098,1 -0.33992,0.55 -0.81648,1 -1.05902,1 -0.24254,0 -0.44098,-0.45 -0.44098,-1 z m 7,-0.41194 c 0,-0.91259 0.88416,-1.31489 2.5,-1.13752 2.54072,0.2789 3.49141,-0.9534 1.29925,-1.68412 -0.68522,-0.22841 -0.79256,-0.64719 -0.25,-0.97543 0.52291,-0.31635 2.52575,0.53143 4.45075,1.88397 2.43535,1.71111 2.89163,2.36271 1.5,2.1421 -1.1,-0.17438 -2.33061,-0.76706 -2.73469,-1.31706 -0.41488,-0.5647 -0.74135,-0.23823 -0.75,0.75 -0.0178,2.03721 -1.11395,2.25136 -2.81531,0.55 -0.93333,-0.93333 -1.2,-0.93333 -1.2,0 0,0.66 -0.45,1.2 -1,1.2 -0.55,0 -1,-0.63537 -1,-1.41194 z m 45,0.41194 c -1.20677,-0.77988 -1.04862,-0.97237 0.80902,-0.98469 1.28757,-0.009 2.03561,0.42706 1.69098,0.98469 -0.74319,1.2025 -0.63926,1.2025 -2.5,0 z m -265,-1 -4.5,-0.69961 5.25,-0.1502 c 2.93346,-0.0839 5.25,0.29106 5.25,0.84981 0,0.55 -0.3375,0.93241 -0.75,0.84981 -0.4125,-0.0826 -2.775,-0.46502 -5.25,-0.84981 z m 8.5,0 c 1.1,-0.47269 2.675,-0.88417 3.5,-0.9144 1.33333,-0.0489 1.33333,0.0527 0,0.9144 -0.825,0.53316 -2.4,0.94464 -3.5,0.9144 -2,-0.055 -2,-0.055 0,-0.9144 z m 12.76903,0.30701 c 0.97297,-0.25354 2.32297,-0.23687 3,0.037 0.67703,0.27393 -0.11903,0.48137 -1.76903,0.46099 -1.65,-0.0204 -2.20394,-0.2445 -1.23097,-0.49804 z m 8,0 c 0.97297,-0.25354 2.32297,-0.23687 3,0.037 0.67703,0.27393 -0.11903,0.48137 -1.76903,0.46099 -1.65,-0.0204 -2.20394,-0.2445 -1.23097,-0.49804 z m 7.73097,-0.30701 c 0,-0.55 0.45,-1 1,-1 0.55,0 1,0.45 1,1 0,0.55 -0.45,1 -1,1 -0.55,0 -1,-0.45 -1,-1 z m 33,-0.059 c 0,-0.58246 0.45,-0.7809 1,-0.44098 0.55,0.33992 1,0.81647 1,1.05901 0,0.24255 -0.45,0.44099 -1,0.44099 -0.55,0 -1,-0.47656 -1,-1.05902 z m 11,0.19653 c 0,-0.47437 -1.12722,-0.73875 -2.50493,-0.58751 -1.41451,0.15527 -2.24524,-0.14522 -1.90836,-0.6903 0.32811,-0.5309 1.11783,-0.78113 1.75493,-0.55607 0.6371,0.22506 2.15493,0.041 3.37296,-0.409 2.34376,-0.86593 4.18374,0.5139 2.04163,1.53104 -0.69093,0.32808 -0.24311,0.40848 0.99515,0.17867 1.23826,-0.2298 1.9992,-0.01 1.69098,0.48892 -0.71396,1.15521 -5.44236,1.19366 -5.44236,0.0442 z m 31.24377,-0.80187 c -1.38263,-0.55742 -0.71702,-2.33564 0.87426,-2.33564 0.55,0 0.74564,0.41157 0.43476,0.91459 -0.31089,0.50302 5e-5,1.1425 0.69098,1.42105 0.69093,0.27856 0.80623,0.50646 0.25623,0.50646 -0.55,0 -1.5653,-0.2279 -2.25623,-0.50646 z m 39.75623,-0.33564 c -2.05955,-0.65958 -2.14764,-0.8155 -0.5,-0.88501 1.1,-0.0464 2.675,0.35185 3.5,0.88501 1.75214,1.13232 0.53568,1.13232 -3,0 z"
         id="path3062"
         inkscape:connector-curvature="0" />
      <path
         style="fill:#909090"
         d="m 611.64285,613.00507 c 0.33992,-0.55 0.81648,-1 1.05902,-1 0.24254,0 0.44098,0.45 0.44098,1 0,0.55 -0.47656,1 -1.05902,1 -0.58246,0 -0.7809,-0.45 -0.44098,-1 z m 6.5,-4.37755 c 0,-0.20766 0.7875,-0.99516 1.75,-1.75 1.58606,-1.24388 1.62143,-1.20851 0.37756,0.37755 -1.30637,1.66575 -2.12756,2.19548 -2.12756,1.37245 z m -26.12756,-4.37245 c -1.24387,-1.58606 -1.2085,-1.62143 0.37756,-0.37755 1.66575,1.30636 2.19548,2.12755 1.37244,2.12755 -0.20765,0 -0.99515,-0.7875 -1.75,-1.75 z m -44.86962,-2.93832 c 0.002,-0.44642 1.84688,-0.89451 4.10073,-0.99574 2.25385,-0.10123 3.91384,10e-6 3.68886,0.22498 -0.85741,0.85741 -7.79228,1.5436 -7.78959,0.77076 z m 10.99718,-1.19365 c 0,-0.55 0.45,-1.27811 1,-1.61803 0.55,-0.33992 1,-0.16803 1,0.38197 0,0.55 -0.45,1.27811 -1,1.61803 -0.55,0.33992 -1,0.16803 -1,-0.38197 z m 6.8125,-1.80114 c 0.72187,-0.28887 1.58437,-0.25335 1.91667,0.0789 0.33229,0.33229 -0.25834,0.56864 -1.3125,0.52522 -1.16495,-0.048 -1.4019,-0.28494 -0.60417,-0.60417 z m -109.8125,-3.31689 c -0.90129,-0.58246 -1.02463,-0.97549 -0.30902,-0.98469 0.65504,-0.008 1.4691,0.43469 1.80902,0.98469 0.76731,1.24153 0.42112,1.24153 -1.5,0 z m 108.03987,-0.45196 c -0.66276,-0.79858 -1.05536,-2.19502 -0.87245,-3.1032 0.2221,-1.10269 0.71898,-0.62035 1.49572,1.45196 1.29245,3.44823 1.15979,3.7997 -0.62327,1.65124 z m 156.5505,-0.40181 c -0.29021,-0.46958 0.68706,-1.40723 2.17171,-2.08369 2.69134,-1.22625 2.69376,-1.22371 0.81365,0.85378 -2.13383,2.35786 -2.25691,2.40856 -2.98536,1.22991 z M 575.2218,590.42174 c 0.048,-1.16495 0.28494,-1.4019 0.60416,-0.60417 0.28887,0.72187 0.25335,1.58438 -0.0789,1.91667 -0.3323,0.33229 -0.56864,-0.25834 -0.52522,-1.3125 z m 135.42813,0.59478 c -0.35034,-0.56686 0.0511,-0.7345 0.94098,-0.39301 1.73242,0.66479 2.04939,1.38156 0.61096,1.38156 -0.51754,0 -1.21592,-0.44485 -1.55194,-0.98855 z m 15.03563,0.0576 c -0.31644,-0.51199 -0.19299,-1.1672 0.27431,-1.45601 0.46731,-0.28881 0.84965,0.1301 0.84965,0.93091 0,1.68616 -0.31534,1.83349 -1.12396,0.5251 z m -190.54271,-1.06909 c 0,-0.55 0.45,-1 1,-1 0.55,0 1,0.45 1,1 0,0.55 -0.45,1 -1,1 -0.55,0 -1,-0.45 -1,-1 z m 69.36112,-0.22472 c -0.61772,-0.99948 1.57617,-0.87785 4.13888,0.22947 1.70459,0.73653 1.58201,0.84067 -0.82987,0.705 -1.55642,-0.0876 -3.04548,-0.50806 -3.30901,-0.93447 z m 32.13888,0.22472 c 0.33992,-0.55 0.81648,-1 1.05902,-1 0.24254,0 0.44098,0.45 0.44098,1 0,0.55 -0.47656,1 -1.05902,1 -0.58246,0 -0.7809,-0.45 -0.44098,-1 z m 66.20233,-0.66667 c 0.28141,-0.73333 0.64036,-1.33333 0.79767,-1.33333 0.15731,0 0.51626,0.6 0.79767,1.33333 0.28141,0.73334 -0.0775,1.33334 -0.79767,1.33334 -0.72013,0 -1.07908,-0.6 -0.79767,-1.33334 z m -235.20233,-0.33333 c 0.33992,-0.55 0.81648,-1 1.05902,-1 0.24254,0 0.44098,0.45 0.44098,1 0,0.55 -0.47656,1 -1.05902,1 -0.58246,0 -0.7809,-0.45 -0.44098,-1 z m 8.0841,-0.64144 c -0.51929,-1.35323 -0.37018,-1.42591 0.8492,-0.41391 0.8135,0.67514 2.01833,0.89426 2.6774,0.48693 0.75808,-0.46851 0.93618,-0.31645 0.48479,0.41391 -1.04046,1.6835 -3.28298,1.41128 -4.01139,-0.48693 z m 40.17213,0.97708 c 0.69093,-0.27855 0.9589,-0.98755 0.59549,-1.57556 -0.39053,-0.6319 -0.18861,-0.77731 0.49377,-0.35557 1.74489,1.0784 1.38346,2.60582 -0.59549,2.51654 -1.05575,-0.0476 -1.25163,-0.27987 -0.49377,-0.58541 z m 71.5771,-0.83564 c 0,-0.825 0.375,-1.5 0.83334,-1.5 0.45833,0 0.83333,0.675 0.83333,1.5 0,0.825 -0.375,1.5 -0.83333,1.5 -0.45834,0 -0.83334,-0.675 -0.83334,-1.5 z m 107.66667,0.5 c 0,-0.55 0.45,-1 1,-1 0.55,0 1,0.45 1,1 0,0.55 -0.45,1 -1,1 -0.55,0 -1,-0.45 -1,-1 z m 37.8125,0.31689 c 0.72187,-0.28887 1.58438,-0.25335 1.91667,0.0789 0.33229,0.33229 -0.25834,0.56864 -1.3125,0.52522 -1.16495,-0.048 -1.4019,-0.28494 -0.60417,-0.60417 z m -320.90231,-1.9251 c -1.13401,-1.3664 -1.0485,-1.81748 0.56869,-3 1.04686,-0.76549 2.37987,-1.37811 2.96225,-1.36138 0.58238,0.0167 0.15887,0.53309 -0.94113,1.14748 -2.89748,1.61834 -2.90338,1.63114 -1.52006,3.29794 0.69572,0.8383 1.03995,1.52417 0.76495,1.52417 -0.275,0 -1.10062,-0.7237 -1.8347,-1.60821 z m 16.59989,0.5919 c 0.34547,-0.55897 1.04702,-0.75742 1.55902,-0.44099 1.38704,0.85725 1.12841,1.4573 -0.62812,1.4573 -0.85746,0 -1.27636,-0.45734 -0.9309,-1.01631 z m 24.48992,0.0163 c -0.90129,-0.58246 -1.02463,-0.97549 -0.30902,-0.98469 0.65504,-0.008 1.4691,0.43469 1.80902,0.98469 0.76731,1.24153 0.42112,1.24153 -1.5,0 z m 106,0.60699 c 0,-0.21616 0.69837,-0.661 1.55194,-0.98855 0.88992,-0.34149 1.29132,-0.17385 0.94098,0.39301 -0.58726,0.95021 -2.49292,1.40545 -2.49292,0.59554 z m 17.50165,-0.60432 c -0.22752,-0.36814 0.12903,-0.6871 0.79234,-0.70881 0.6633,-0.0217 1.72351,-0.20921 2.35601,-0.41667 0.6325,-0.20745 1.0825,0.0521 1,0.57676 -0.17326,1.10186 -3.53192,1.54612 -4.14835,0.54872 z m 50.83168,-0.45868 c 0,-0.80081 0.38234,-1.21971 0.84965,-0.9309 0.4673,0.28881 0.59075,0.94401 0.27431,1.45601 -0.80862,1.30838 -1.12396,1.16106 -1.12396,-0.52511 z m 19.33334,0.78934 c -0.93214,-0.93213 -0.83205,-2.33333 0.16666,-2.33333 0.45834,0 0.83334,0.675 0.83334,1.5 0,1.69935 -0.0731,1.76025 -1,0.83333 z m 35.33333,-0.33333 c 0,-0.55 0.47656,-1 1.05902,-1 0.58246,0 0.7809,0.45 0.44098,1 -0.33992,0.55 -0.81648,1 -1.05902,1 -0.24254,0 -0.44098,-0.45 -0.44098,-1 z M 404.52227,586.6256 c 0.12615,-0.85948 0.50862,-1.84195 0.84993,-2.18327 0.34132,-0.34131 0.51737,0.0826 0.39123,0.94211 -0.12615,0.85948 -0.50862,1.84195 -0.84993,2.18327 -0.34132,0.34131 -0.51737,-0.0826 -0.39123,-0.94211 z m 127.19369,0.484 c -1.78807,-0.70047 -1.80019,-0.80346 -0.16821,-1.42971 2.45935,-0.94374 3.81548,-0.84047 3.14789,0.23972 -0.31089,0.50302 5e-5,1.1425 0.69098,1.42105 0.85018,0.34276 0.77139,0.50927 -0.24377,0.51513 -0.825,0.005 -2.3671,-0.33102 -3.42689,-0.74619 z m 17.42689,0.50241 c 0,-0.21616 0.675,-0.65203 1.5,-0.96862 0.825,-0.31658 1.5,-0.13972 1.5,0.39302 0,0.53273 -0.675,0.96861 -1.5,0.96861 -0.825,0 -1.5,-0.17686 -1.5,-0.39301 z m 62.8125,-0.2901 c 0.72187,-0.28887 1.58437,-0.25335 1.91667,0.0789 0.33229,0.33229 -0.25834,0.56864 -1.3125,0.52522 -1.16495,-0.048 -1.4019,-0.28494 -0.60417,-0.60417 z m -120.8125,-0.7099 c 0,-0.21616 0.69837,-0.661 1.55194,-0.98855 0.88992,-0.34149 1.29132,-0.17385 0.94098,0.39301 -0.58726,0.95021 -2.49292,1.40545 -2.49292,0.59554 z m 7,0 c 0,-0.21616 0.69837,-0.661 1.55194,-0.98855 0.88992,-0.34149 1.29132,-0.17385 0.94098,0.39301 -0.58726,0.95021 -2.49292,1.40545 -2.49292,0.59554 z m 4.8125,-0.2901 c 0.72187,-0.28887 1.58437,-0.25335 1.91667,0.0789 0.33229,0.33229 -0.25834,0.56864 -1.3125,0.52522 -1.16495,-0.048 -1.4019,-0.28494 -0.60417,-0.60417 z m 33.79051,-0.15022 c -0.28327,-0.45834 0.14017,-0.83334 0.94098,-0.83334 0.8008,0 1.45601,0.375 1.45601,0.83334 0,0.45833 -0.42344,0.83333 -0.94098,0.83333 -0.51754,0 -1.17275,-0.375 -1.45601,-0.83333 z m 4.47594,-0.41667 c -0.0877,-1.94377 0.48506,-2.05414 3.42105,-0.65919 1.88811,0.89708 1.8768,0.92706 -0.20205,0.53587 -1.21113,-0.2279 -2.41311,0.10037 -2.67106,0.72948 -0.25795,0.62911 -0.50452,0.35634 -0.54794,-0.60616 z m 25.73355,0.56689 c 0.72187,-0.28887 1.58437,-0.25335 1.91667,0.0789 0.33229,0.33229 -0.25834,0.56864 -1.3125,0.52522 -1.16495,-0.048 -1.4019,-0.28494 -0.60417,-0.60417 z m 8,-1 c 0.72187,-0.28887 1.58437,-0.25335 1.91667,0.0789 0.33229,0.33229 -0.25834,0.56864 -1.3125,0.52522 -1.16495,-0.048 -1.4019,-0.28494 -0.60417,-0.60417 z m 153.68917,-8.31419 c -0.55722,-0.9016 0.75316,-1.43615 2.74833,-1.12112 0.4125,0.0651 0.75,-0.33158 0.75,-0.88158 0,-0.55 0.47656,-1 1.05902,-1 1.45201,0 0.23895,1.77017 -2.05403,2.99733 -1.2581,0.67332 -2.08941,0.6751 -2.50332,0.005 z m -57.92856,-0.95336 c -1.69388,-0.61501 -1.72798,-0.77593 -0.28202,-1.3308 0.90467,-0.34716 1.92933,-0.17091 2.27702,0.39166 0.8925,1.44409 0.24076,1.75089 -1.995,0.93914 z m 26.42689,-0.0493 c -0.825,-0.53316 -1.05,-0.96937 -0.5,-0.96937 0.55,0 1.675,0.43621 2.5,0.96937 0.825,0.53316 1.05,0.96937 0.5,0.96937 -0.55,0 -1.675,-0.43621 -2.5,-0.96937 z m 5,0.60699 c 0,-0.21616 0.69837,-0.661 1.55194,-0.98855 0.88992,-0.34149 1.29132,-0.17385 0.94098,0.39301 -0.58726,0.95021 -2.49292,1.40545 -2.49292,0.59554 z m 20.8125,-0.2901 c 0.72187,-0.28887 1.58438,-0.25335 1.91667,0.0789 0.33229,0.33229 -0.25834,0.56864 -1.3125,0.52522 -1.16495,-0.048 -1.4019,-0.28494 -0.60417,-0.60417 z m -201.3125,-1.29889 c -1.58994,-0.58091 -1.22841,-0.82185 1.76336,-1.17513 2.06985,-0.24441 4.31985,-0.0498 5,0.4325 0.90015,0.63829 0.82849,0.7569 -0.26336,0.43589 -0.825,-0.24255 -2.175,-0.10835 -3,0.29824 -0.825,0.40658 -2.4,0.41041 -3.5,0.008 z m -90.03978,-0.95364 c 0.2769,-0.44802 -1.52209,-0.58628 -3.99774,-0.30724 -3.8672,0.43589 -4.41297,0.27745 -3.87485,-1.12489 0.34449,-0.89772 1.5907,-1.6006 2.76936,-1.56194 2.0928,0.0686 2.09616,0.0923 0.14301,1.01074 -1.52456,0.71689 -1.15644,0.81725 1.54858,0.42219 2.11048,-0.30824 4.26352,0.005 5.31275,0.77172 1.65143,1.20756 1.63097,1.30003 -0.32019,1.44701 -1.1464,0.0864 -1.85782,-0.20956 -1.58092,-0.65759 z m 34.2731,-0.44188 c 0.34447,-0.55736 -0.12738,-0.68524 -1.12121,-0.30387 -1.01928,0.39113 -1.46793,0.25712 -1.10503,-0.33006 0.83315,-1.34807 1.7674,-1.24353 4.05179,0.45337 1.89357,1.40659 1.8877,1.43826 -0.23959,1.29241 -1.1994,-0.0822 -1.91308,-0.58256 -1.58596,-1.11185 z m 83.26668,0.37752 c -1.20677,-0.77988 -1.04862,-0.97237 0.80902,-0.98469 1.28757,-0.009 2.03561,0.42706 1.69098,0.98469 -0.74319,1.2025 -0.63926,1.2025 -2.5,0 z m 18.07045,0.59621 c 0.25612,-0.25612 1.58255,-0.61893 2.94761,-0.80626 1.36507,-0.18732 3.01335,-0.67404 3.66284,-1.08158 0.6495,-0.40755 1.50653,-0.21412 1.90451,0.42983 0.43548,0.70462 0.29142,0.90371 -0.3618,0.5 -0.59698,-0.36896 -1.3073,-0.31181 -1.57849,0.12699 -0.27119,0.43879 -1.96621,0.91006 -3.7667,1.04725 -1.8005,0.13719 -3.06408,0.0399 -2.80797,-0.21623 z m 58.9395,-0.62352 c 1.68612,-1.06603 5.68049,-1.3298 4.65832,-0.30762 -0.36579,0.36578 -1.89881,0.7966 -3.40672,0.95737 -2.03707,0.21719 -2.35872,0.0502 -1.2516,-0.64975 z m 21.99005,0.0863 c 0,-1.3935 1.83834,-2.27697 3.10676,-1.49304 0.77153,0.47684 0.69581,0.94442 -0.25,1.54371 -1.78509,1.13109 -2.85676,1.11208 -2.85676,-0.0507 z m 31.81796,-0.27698 c 0.53328,-0.53328 1.8049,-0.79255 2.82582,-0.57615 1.37482,0.29142 1.12336,0.54288 -0.9696,0.96961 -1.82482,0.37205 -2.48236,0.23268 -1.85622,-0.39346 z m -276.00546,-0.46515 c 0.72188,-0.28887 1.58438,-0.25335 1.91667,0.0789 0.33229,0.33229 -0.25834,0.56864 -1.3125,0.52522 -1.16495,-0.048 -1.4019,-0.28494 -0.60417,-0.60417 z m 3.9375,0.0208 c 0.6875,-0.27742 1.8125,-0.27742 2.5,0 0.6875,0.27741 0.125,0.50438 -1.25,0.50438 -1.375,0 -1.9375,-0.22697 -1.25,-0.50438 z m 8.06796,-0.55568 c 0.53328,-0.53328 1.8049,-0.79255 2.82582,-0.57615 1.37482,0.29141 1.12336,0.54288 -0.9696,0.9696 -1.82482,0.37206 -2.48236,0.23269 -1.85622,-0.39345 z m 60.18204,0.21796 c 1.375,-0.44035 3.4,-0.8386 4.5,-0.88501 1.64764,-0.0695 1.73573,0.0864 0.5,0.88501 -0.825,0.53316 -2.85,0.93141 -4.5,0.88501 -2.93984,-0.0827 -2.94987,-0.10042 -0.5,-0.88501 z m 28,0 c 0,-0.55 1.0125,-0.99311 2.25,-0.98469 1.81944,0.0124 1.96296,0.20082 0.75,0.98469 -1.93876,1.25292 -3,1.25292 -3,0 z m 5.47746,0.0365 c 0.32752,-0.52994 -0.32092,-1.87994 -1.44099,-3 -1.12006,-1.12006 -1.69897,-2.02216 -1.28647,-2.00467 1.16593,0.0494 4.75212,2.96415 3.69113,3 -0.51762,0.0175 -0.0676,0.69249 1,1.5 1.89201,1.43105 1.8842,1.4682 -0.30902,1.4682 -1.23758,0 -1.98217,-0.43359 -1.65465,-0.96352 z m 3.73311,-0.57451 c -0.70918,-0.80408 -0.84824,-1.46196 -0.30901,-1.46196 0.53922,0 1.28275,0.48921 1.65229,1.08713 0.48382,0.78284 0.97617,0.78284 1.75902,0 1.42577,-1.42577 5.68713,-1.40371 5.68713,0.0294 0,0.65461 -1.04422,0.91696 -2.52387,0.63411 -1.38812,-0.26536 -2.76468,-0.0928 -3.05901,0.38342 -0.7548,1.22128 -1.71389,1.02024 -3.20655,-0.67214 z m 23.60193,0.85492 c 0.72187,-0.28887 1.58437,-0.25334 1.91667,0.0789 0.33229,0.33229 -0.25834,0.56864 -1.3125,0.52522 -1.16495,-0.048 -1.4019,-0.28494 -0.60417,-0.60417 z m 4.9375,0.0208 c 0.6875,-0.27741 1.8125,-0.27741 2.5,0 0.6875,0.27741 0.125,0.50439 -1.25,0.50439 -1.375,0 -1.9375,-0.22698 -1.25,-0.50439 z m 13.88048,-0.3682 c 0.68236,-0.68236 1.84787,-0.70377 3.45,-0.0634 2.27345,0.90871 2.21123,0.97092 -1.03048,1.03048 -2.36804,0.0435 -3.12683,-0.25978 -2.41952,-0.9671 z m 24.18202,0.34737 c 0.72187,-0.28887 1.58437,-0.25335 1.91667,0.0789 0.33229,0.33229 -0.25834,0.56864 -1.3125,0.52522 -1.16495,-0.048 -1.4019,-0.28494 -0.60417,-0.60417 z m 18.9375,0.0208 c 0.6875,-0.27741 1.8125,-0.27741 2.5,0 0.6875,0.27741 0.125,0.50438 -1.25,0.50438 -1.375,0 -1.9375,-0.22697 -1.25,-0.50438 z m 35.25,-1.83771 c 1.29175,-1.375 2.51619,-2.5 2.721,-2.5 0.8308,0 -3.29026,4.93951 -4.14531,4.96858 -0.50838,0.0173 0.13256,-1.09358 1.42431,-2.46858 z m 20,2.12245 c 0,-0.20766 0.6853,-0.94631 1.52289,-1.64145 1.27335,-1.05678 1.41968,-0.99492 0.89301,0.37756 -0.53789,1.40173 -2.4159,2.38422 -2.4159,1.26389 z"
         id="path3060"
         inkscape:connector-curvature="0" />
      <path
         style="fill:#6f6f6f"
         d="m 542.52516,600.20387 c -1.76757,-1.37839 -1.77065,-1.42919 -0.0505,-0.83333 1.00746,0.34899 2.46996,0.63453 3.24998,0.63453 0.78001,0 1.41821,0.375 1.41821,0.83333 0,1.32158 -2.56046,0.96974 -4.61769,-0.63453 z m 12.61769,0.40819 c 0,-0.21616 0.675,-0.65203 1.5,-0.96862 0.825,-0.31658 1.5,-0.13972 1.5,0.39302 0,0.53273 -0.675,0.96861 -1.5,0.96861 -0.825,0 -1.5,-0.17686 -1.5,-0.39301 z m 5.76845,-1.77544 c 0.5811,-0.5811 1.64682,-0.85979 2.36826,-0.61931 0.74895,0.24965 0.29565,0.70294 -1.05655,1.05655 -1.66335,0.43497 -2.05378,0.30483 -1.31171,-0.43724 z m 7.04405,-0.51466 c 0.72187,-0.28887 1.58437,-0.25335 1.91667,0.0789 0.33229,0.33229 -0.25834,0.56864 -1.3125,0.52522 -1.16495,-0.048 -1.4019,-0.28494 -0.60417,-0.60417 z m -64.8125,-4.74652 c 0,-0.275 0.9,-0.98167 2,-1.57037 1.1,-0.5887 2,-0.84537 2,-0.57037 0,0.275 -0.9,0.98167 -2,1.57037 -1.1,0.5887 -2,0.84537 -2,0.57037 z m 211.50708,-3.55892 c -0.35034,-0.56686 0.0511,-0.7345 0.94098,-0.39301 1.73242,0.66479 2.04939,1.38156 0.61096,1.38156 -0.51754,0 -1.21592,-0.44485 -1.55194,-0.98855 z m 3.99292,-0.0114 c 0.33992,-0.55 0.81648,-1 1.05902,-1 0.24254,0 0.44098,0.45 0.44098,1 0,0.55 -0.47656,1 -1.05902,1 -0.58246,0 -0.7809,-0.45 -0.44098,-1 z m 5.5,-0.16667 c 0,-0.45833 0.42344,-0.83333 0.94098,-0.83333 0.51754,0 1.17275,0.375 1.45601,0.83333 0.28327,0.45834 -0.14017,0.83334 -0.94098,0.83334 -0.8008,0 -1.45601,-0.375 -1.45601,-0.83334 z m -252,-1.89235 c 0,-0.58246 0.45,-0.7809 1,-0.44098 0.55,0.33992 1,0.81648 1,1.05902 0,0.24254 -0.45,0.44098 -1,0.44098 -0.55,0 -1,-0.47656 -1,-1.05902 z m 46.07895,-0.19098 c -0.0434,-0.9625 0.10925,-1.75 0.33926,-1.75 0.23002,0 1.13512,-0.2751 2.01134,-0.61134 1.16434,-0.4468 1.4273,-0.17919 0.97701,0.99426 -0.33887,0.88307 -0.98054,1.38037 -1.42593,1.10511 -0.4454,-0.27527 -1.03772,0.0648 -1.31627,0.75574 -0.30554,0.75786 -0.53778,0.56198 -0.58541,-0.49377 z m 58.65226,-0.83016 c 0.35361,-1.3522 0.8069,-1.8055 1.05655,-1.05655 0.24048,0.72144 -0.0382,1.78716 -0.61931,2.36826 -0.74207,0.74207 -0.87221,0.35164 -0.43724,-1.31171 z m 22.83355,1.18495 c -0.3043,-0.49237 0.0962,-1.14446 0.89006,-1.44908 0.96277,-0.36945 1.25818,-0.0714 0.88726,0.89522 -0.6446,1.67981 -1.01089,1.79396 -1.77732,0.55386 z m 16.24774,0.2121 c 0.72187,-0.28887 1.58437,-0.25335 1.91667,0.0789 0.33229,0.33229 -0.25834,0.56864 -1.3125,0.52522 -1.16495,-0.048 -1.4019,-0.28494 -0.60417,-0.60417 z m 33.45754,-0.79127 c -1.0027,-1.13994 -0.88443,-1.37228 0.64013,-1.25743 1.08836,0.082 1.66229,0.68239 1.37297,1.43634 -0.59436,1.54889 -0.48475,1.55863 -2.0131,-0.17891 z m 36.3624,0.68867 c -0.26708,-0.43215 0.34832,-0.78572 1.36756,-0.78572 1.01924,0 1.63464,0.35357 1.36756,0.78572 -0.26707,0.43214 -0.88248,0.78571 -1.36756,0.78571 -0.48508,0 -1.10049,-0.35357 -1.36756,-0.78571 z m -218.11045,-1.1787 c -0.21451,-0.3471 -0.0668,-1.15415 0.32836,-1.79345 0.50125,-0.81104 1.05691,-0.62029 1.8384,0.63108 0.88345,1.41463 0.8141,1.79345 -0.32835,1.79345 -0.79661,0 -1.62389,-0.28399 -1.83841,-0.63108 z m 15.49332,-0.78559 c 0.009,-0.99868 0.33573,-1.32068 0.76164,-0.75 0.41047,0.55 1.15358,1.3375 1.65135,1.75 0.49777,0.4125 0.15503,0.75 -0.76163,0.75 -0.92647,0 -1.65987,-0.77721 -1.65136,-1.75 z m 98.48362,0.74828 c -0.20881,-0.33787 1.39351,-0.71893 3.56071,-0.8468 2.1672,-0.12787 3.94036,-0.0385 3.94036,0.1986 0,0.70435 -7.08783,1.31683 -7.50107,0.6482 z m 40.50107,0.002 c 0,-0.55 0.47656,-1 1.05902,-1 0.58246,0 0.7809,0.45 0.44098,1 -0.33992,0.55 -0.81648,1 -1.05902,1 -0.24254,0 -0.44098,-0.45 -0.44098,-1 z m -195,-1.05902 c 0,-0.58246 0.45,-0.7809 1,-0.44098 0.55,0.33992 1,0.81648 1,1.05902 0,0.24254 -0.45,0.44098 -1,0.44098 -0.55,0 -1,-0.47656 -1,-1.05902 z m 5.51008,0.0427 c 0.34547,-0.55897 1.04702,-0.75741 1.55902,-0.44098 1.38704,0.85725 1.12841,1.4573 -0.62812,1.4573 -0.85746,0 -1.27636,-0.45734 -0.9309,-1.01631 z m -33.69758,-0.66679 c 0.72188,-0.28887 1.58438,-0.25335 1.91667,0.0789 0.33229,0.33229 -0.25834,0.56864 -1.3125,0.52522 -1.16495,-0.048 -1.4019,-0.28495 -0.60417,-0.60417 z m 19,-1 c 0.72188,-0.28887 1.58438,-0.25335 1.91667,0.0789 0.33229,0.33229 -0.25834,0.56864 -1.3125,0.52522 -1.16495,-0.048 -1.4019,-0.28494 -0.60417,-0.60417 z m 254.84508,-8.76685 c -0.34677,-0.90366 0.10292,-1.16392 1.41724,-0.82022 2.29771,0.60086 2.38611,0.87933 0.50794,1.60005 -0.77948,0.29911 -1.64582,-0.0518 -1.92518,-0.77983 z m 31.84242,0.44996 c 0.33992,-0.55 0.81648,-1 1.05902,-1 0.24254,0 0.44098,0.45 0.44098,1 0,0.55 -0.47656,1 -1.05902,1 -0.58246,0 -0.7809,-0.45 -0.44098,-1 z m -76.44745,-0.96752 c -0.80953,-0.50032 -0.32608,-0.78248 1.34069,-0.78248 2.90945,0 3.25546,0.28709 1.26608,1.05049 -0.73738,0.28296 -1.91042,0.16235 -2.60677,-0.26801 z M 464.14285,573.8384 c 0,-0.45833 0.42344,-0.83333 0.94098,-0.83333 0.51754,0 1.17275,0.375 1.45601,0.83333 0.28327,0.45834 -0.14017,0.83334 -0.94098,0.83334 -0.80081,0 -1.45601,-0.375 -1.45601,-0.83334 z m 13,0.7833 c 0,-0.21085 0.9,-0.61872 2,-0.90638 1.1,-0.28765 2,-0.11514 2,0.38337 0,0.49851 -0.9,0.90638 -2,0.90638 -1.1,0 -2,-0.17252 -2,-0.38337 z m 5.86315,-0.51089 c 1.15087,-0.72915 1.15087,-0.94806 0,-1.40574 -0.74973,-0.29816 -0.15221,-0.57763 1.32783,-0.62105 1.48004,-0.0434 3.01207,0.44058 3.40451,1.07556 0.42587,0.68907 0.27595,0.88407 -0.37188,0.48369 -0.59698,-0.36896 -1.36806,-0.21348 -1.71353,0.34549 -0.34546,0.55897 -1.38906,1.00942 -2.3191,1.001 -1.33622,-0.0121 -1.405,-0.1965 -0.32783,-0.87895 z m 63.88685,0.23198 c 0.6875,-0.27741 1.8125,-0.27741 2.5,0 0.6875,0.27741 0.125,0.50438 -1.25,0.50438 -1.375,0 -1.9375,-0.22697 -1.25,-0.50438 z m 5.0625,-0.0208 c 0.72187,-0.28887 1.58437,-0.25334 1.91667,0.0789 0.33229,0.33229 -0.25834,0.56864 -1.3125,0.52522 -1.16495,-0.048 -1.4019,-0.28494 -0.60417,-0.60417 z m 9.1875,-0.31689 c 0,-0.55 0.42344,-1 0.94098,-1 0.51754,0 1.2191,0.45 1.55902,1 0.33992,0.55 -0.0835,1 -0.94098,1 -0.85746,0 -1.55902,-0.45 -1.55902,-1 z m 4.54112,0.0665 c -0.36254,-0.58659 -0.15604,-1.06653 0.45888,-1.06653 0.61492,0 0.83992,-0.45 0.5,-1 -0.33992,-0.55 0.13862,-1 1.06343,-1 1.445,0 1.49309,0.2461 0.34198,1.75 -0.73671,0.9625 -1.42175,1.89244 -1.52231,2.06653 -0.10055,0.17409 -0.47945,-0.16341 -0.84198,-0.75 z m 6.30954,-0.74647 c -0.828,-0.99768 -0.71374,-1.32006 0.46788,-1.32006 0.85988,0 1.86765,0.49224 2.23948,1.09387 0.37206,0.60202 2.42203,0.92737 4.55901,0.72358 2.13564,-0.20367 3.88297,10e-4 3.88297,0.45556 0,1.33933 -9.95292,0.48864 -11.14934,-0.95295 z m 28.89934,1.01766 c 0.6875,-0.27741 1.8125,-0.27741 2.5,0 0.6875,0.27741 0.125,0.50438 -1.25,0.50438 -1.375,0 -1.9375,-0.22697 -1.25,-0.50438 z m 33.58333,-0.83356 c 0,-0.82272 0.9375,-2.28522 2.08334,-3.25 2.03844,-1.71637 2.04716,-1.71107 0.40459,0.24584 -0.92331,1.1 -1.67331,2.375 -1.66667,2.83333 0.007,0.45834 -0.17542,1.02084 -0.40459,1.25 -0.22917,0.22917 -0.41667,-0.25646 -0.41667,-1.07917 z m 10.66667,0.46446 c 0,-0.53274 0.675,-0.96862 1.5,-0.96862 0.825,0 1.5,0.17686 1.5,0.39301 0,0.21616 -0.675,0.65203 -1.5,0.96862 -0.825,0.31658 -1.5,0.13972 -1.5,-0.39301 z m -232.52108,-0.94101 c 2.14546,-0.7745 9.37783,-0.50419 10.2657,0.38368 0.30072,0.30071 -2.3313,0.49814 -5.84893,0.43872 -3.85687,-0.0652 -5.61014,-0.3916 -4.41677,-0.8224 z m 35.27108,0.26666 c 1.2375,-0.23836 3.2625,-0.23836 4.5,0 1.2375,0.23835 0.225,0.43337 -2.25,0.43337 -2.475,0 -3.4875,-0.19502 -2.25,-0.43337 z m 19.75,-0.29427 c -0.33992,-0.55 -0.16803,-1 0.38197,-1 0.55,0 1.27811,0.45 1.61803,1 0.33992,0.55 0.16803,1 -0.38197,1 -0.55,0 -1.27811,-0.45 -1.61803,-1 z m 24.66615,0.12385 c -1.09769,-0.69582 -1.08293,-0.94181 0.0833,-1.38935 0.8084,-0.31021 1.41718,0.0596 1.41718,0.86084 0,0.77256 -0.0375,1.39777 -0.0833,1.38935 -0.0458,-0.008 -0.68356,-0.3958 -1.41718,-0.86084 z m 5.83385,-0.12385 c -0.90129,-0.58246 -1.02463,-0.97549 -0.30902,-0.98469 0.65504,-0.008 1.4691,0.43469 1.80902,0.98469 0.7673,1.24153 0.42112,1.24153 -1.5,0 z m 3.8125,0.31689 c 0.72187,-0.28887 1.58437,-0.25335 1.91667,0.0789 0.33229,0.33229 -0.25834,0.56864 -1.3125,0.52522 -1.16495,-0.048 -1.4019,-0.28494 -0.60417,-0.60417 z m 5.1875,-0.31689 c 1.95837,-1.2656 3.28218,-1.2656 2.5,0 -0.33992,0.55 -1.37898,0.99311 -2.30902,0.98469 -1.45727,-0.0132 -1.48367,-0.14929 -0.19098,-0.98469 z m 6,0.059 c 0,-0.51754 0.44485,-1.21591 0.98855,-1.55194 0.56686,-0.35034 0.7345,0.0511 0.39301,0.94099 -0.66479,1.73241 -1.38156,2.04938 -1.38156,0.61095 z m 75.8125,0.25787 c 0.72187,-0.28887 1.58437,-0.25334 1.91667,0.0789 0.33229,0.33229 -0.25834,0.56864 -1.3125,0.52522 -1.16495,-0.048 -1.4019,-0.28494 -0.60417,-0.60417 z m 30.9375,0.0208 c 0.6875,-0.27741 1.8125,-0.27741 2.5,0 0.6875,0.27741 0.125,0.50438 -1.25,0.50438 -1.375,0 -1.9375,-0.22697 -1.25,-0.50438 z m -186.48097,-1.03071 c 0.97297,-0.25354 2.32297,-0.23687 3,0.037 0.67703,0.27393 -0.11903,0.48137 -1.76903,0.46099 -1.65,-0.0204 -2.20394,-0.2445 -1.23097,-0.49804 z m 88.73097,-0.40063 c 0,-0.49851 0.9,-0.90638 2,-0.90638 1.1,0 2,0.17252 2,0.38337 0,0.21085 -0.9,0.61872 -2,0.90638 -1.1,0.28766 -2,0.11514 -2,-0.38337 z"
         id="path3058"
         inkscape:connector-curvature="0" />
      <path
         style="fill:#4f4f4f"
         d="m 565.14285,597.03646 c 0,-0.53274 0.675,-0.7096 1.5,-0.39302 0.825,0.31659 1.5,0.75246 1.5,0.96862 0,0.21615 -0.675,0.39301 -1.5,0.39301 -0.825,0 -1.5,-0.43588 -1.5,-0.96861 z M 452.0153,591.25507 c -1.24388,-1.58606 -1.20851,-1.62143 0.37755,-0.37755 0.9625,0.75484 1.75,1.54234 1.75,1.75 0,0.82303 -0.82119,0.2933 -2.12755,-1.37245 z m 268.12755,-1.75 c 0,-0.825 0.375,-1.5 0.83333,-1.5 0.45834,0 0.83334,0.675 0.83334,1.5 0,0.825 -0.375,1.5 -0.83334,1.5 -0.45833,0 -0.83333,-0.675 -0.83333,-1.5 z m 6.56429,-0.20687 c -0.54268,-1.4252 -0.42782,-1.54006 0.5598,-0.5598 0.68342,0.67834 0.99067,1.48524 0.68278,1.79313 -0.30789,0.30789 -0.86705,-0.24711 -1.24258,-1.23333 z m -115.99286,-0.86456 c -1.73212,-1.73212 -1.96498,-2.42857 -0.81198,-2.42857 0.4177,0 1.32152,0.9 2.00848,2 1.49753,2.39793 0.96397,2.58904 -1.1965,0.42857 z m -183.30919,-1.12025 c 0.96924,-0.25283 1.52959,-0.83612 1.24524,-1.29622 -0.28435,-0.46009 0.27264,-0.71477 1.23776,-0.56596 0.96512,0.14882 2.08537,-0.22818 2.48945,-0.83778 0.50886,-0.76767 0.73939,-0.71653 0.75,0.16639 0.0155,1.28712 -4.11067,3.32356 -6.29979,3.10925 -0.65169,-0.0638 -0.39189,-0.32286 0.57734,-0.57568 z m 51.23776,-0.30832 c 0.33992,-0.55 0.81648,-1 1.05902,-1 0.24254,0 0.44098,0.45 0.44098,1 0,0.55 -0.47656,1 -1.05902,1 -0.58246,0 -0.7809,-0.45 -0.44098,-1 z m 83,0.0111 c -1.62137,-0.68771 -1.40317,-0.8164 1.15257,-0.67971 1.73391,0.0927 2.94485,0.50609 2.69098,0.91859 -0.55913,0.90851 -1.23791,0.86632 -3.84355,-0.23888 z m 33.04271,0.058 c -0.73955,-1.1966 1.14162,-2.38223 2.4736,-1.55902 1.11836,0.69119 0.38417,2.48992 -1.01631,2.48992 -0.48508,0 -1.14086,-0.41891 -1.45729,-0.9309 z m 10.45729,-0.0691 c -1.29269,-0.8354 -1.26629,-0.97149 0.19098,-0.98469 0.93004,-0.008 1.9691,0.43469 2.30902,0.98469 0.78218,1.2656 -0.54163,1.2656 -2.5,0 z m 49.50708,0.0114 c -0.35034,-0.56686 0.0511,-0.73451 0.94098,-0.39301 1.73242,0.66479 2.04939,1.38156 0.61096,1.38156 -0.51754,0 -1.21592,-0.44485 -1.55194,-0.98855 z m 35.30542,0.30543 c 0.72187,-0.28887 1.58438,-0.25334 1.91667,0.0789 0.33229,0.33229 -0.25834,0.56864 -1.3125,0.52522 -1.16495,-0.048 -1.4019,-0.28494 -0.60417,-0.60417 z m -243.19941,-1.49986 c 0.28881,-0.4673 0.94401,-0.59075 1.45601,-0.27432 1.30838,0.80863 1.16106,1.12397 -0.52511,1.12397 -0.80081,0 -1.21971,-0.38234 -0.9309,-0.84965 z m 3.92962,0.25208 c -0.31644,-0.512 -0.19299,-1.1672 0.27431,-1.45601 0.46731,-0.28881 0.84965,0.13009 0.84965,0.9309 0,1.68617 -0.31534,1.83349 -1.12396,0.52511 z m 2.45729,-0.0377 c 0,-0.53274 0.675,-0.7096 1.5,-0.39302 0.825,0.31659 1.5,0.75246 1.5,0.96862 0,0.21615 -0.675,0.39301 -1.5,0.39301 -0.825,0 -1.5,-0.43588 -1.5,-0.96861 z m 5.8125,0.2855 c 0.72188,-0.28887 1.58437,-0.25335 1.91667,0.0789 0.33229,0.33229 -0.25834,0.56864 -1.3125,0.52522 -1.16495,-0.048 -1.4019,-0.28494 -0.60417,-0.60417 z m 26.1875,-0.31689 c -1.20677,-0.77988 -1.04862,-0.97237 0.80902,-0.98469 1.28757,-0.009 2.03561,0.42706 1.69098,0.98469 -0.74319,1.2025 -0.63926,1.2025 -2.5,0 z m 18.5,0 c -1.52206,-0.65405 -0.92463,-0.87257 2.5,-0.9144 3.25608,-0.0398 4.08536,0.21299 3,0.9144 -1.78022,1.15047 -2.82272,1.15047 -5.5,0 z m 31.5,0.0984 c 0,-1.03844 1.90221,-2.54173 2.46567,-1.94858 0.18294,0.19258 -0.297,0.93038 -1.06653,1.63956 -0.76953,0.70919 -1.39914,0.84825 -1.39914,0.30902 z m 43,0.50855 c 0,-0.21616 0.69837,-0.66101 1.55194,-0.98855 0.88992,-0.3415 1.29132,-0.17385 0.94098,0.39301 -0.58726,0.95021 -2.49292,1.40545 -2.49292,0.59554 z m 4,-0.60699 c 0,-0.55 0.47656,-1 1.05902,-1 0.58246,0 0.7809,0.45 0.44098,1 -0.33992,0.55 -0.81648,1 -1.05902,1 -0.24254,0 -0.44098,-0.45 -0.44098,-1 z m -181,-1.03138 c 0,-0.53274 0.675,-0.96862 1.5,-0.96862 0.825,0 1.5,0.17686 1.5,0.39301 0,0.21616 -0.675,0.65203 -1.5,0.96862 -0.825,0.31658 -1.5,0.13972 -1.5,-0.39301 z m 96.60301,-0.13529 c 0.28326,-0.45833 0.93847,-0.83333 1.45601,-0.83333 0.51754,0 0.94098,0.375 0.94098,0.83333 0,0.45834 -0.65521,0.83334 -1.45601,0.83334 -0.80081,0 -1.22425,-0.375 -0.94098,-0.83334 z m 22.13032,0.0426 c 0.67834,-0.68341 1.48524,-0.99067 1.79313,-0.68278 0.30789,0.30789 -0.24711,0.86705 -1.23333,1.24258 -1.4252,0.54268 -1.54006,0.42782 -0.5598,-0.5598 z m 6.51667,0.43477 c 0.9625,-0.25153 2.5375,-0.25153 3.5,0 0.9625,0.25152 0.175,0.45732 -1.75,0.45732 -1.925,0 -2.7125,-0.2058 -1.75,-0.45732 z m 42.5,0.0271 c 0.6875,-0.27742 1.8125,-0.27742 2.5,0 0.6875,0.27741 0.125,0.50438 -1.25,0.50438 -1.375,0 -1.9375,-0.22697 -1.25,-0.50438 z m 17.0625,-0.0208 c 0.72187,-0.28888 1.58437,-0.25335 1.91667,0.079 0.33229,0.33229 -0.25834,0.56864 -1.3125,0.52522 -1.16495,-0.048 -1.4019,-0.28495 -0.60417,-0.60417 z m 105.36534,-8.6026 c -0.8014,-0.96563 -0.62442,-1.28572 0.71089,-1.28572 0.97787,0 1.77794,0.57857 1.77794,1.28572 0,0.70714 -0.3199,1.28571 -0.71089,1.28571 -0.39099,0 -1.19106,-0.57857 -1.77794,-1.28571 z m 8.07216,0.59638 c 0.9625,-0.25152 2.5375,-0.25152 3.5,0 0.9625,0.25153 0.175,0.45733 -1.75,0.45733 -1.925,0 -2.7125,-0.2058 -1.75,-0.45733 z m 6.5625,0.006 c 0.72187,-0.28887 1.58438,-0.25334 1.91667,0.0789 0.33229,0.3323 -0.25834,0.56864 -1.3125,0.52522 -1.16495,-0.048 -1.4019,-0.28494 -0.60417,-0.60416 z m 16,0 c 0.72187,-0.28887 1.58438,-0.25334 1.91667,0.0789 0.33229,0.3323 -0.25834,0.56864 -1.3125,0.52522 -1.16495,-0.048 -1.4019,-0.28494 -0.60417,-0.60416 z m 9.9375,0.0208 c 0.6875,-0.27741 1.8125,-0.27741 2.5,0 0.6875,0.27742 0.125,0.50439 -1.25,0.50439 -1.375,0 -1.9375,-0.22697 -1.25,-0.50439 z m -110,-1.02704 c -2.58442,-0.67538 -2.12667,-2.31945 0.58333,-2.09516 1.28334,0.10621 2.33334,0.77617 2.33334,1.4888 0,0.71263 -0.2625,1.24348 -0.58334,1.17968 -0.32083,-0.0638 -1.37083,-0.32179 -2.33333,-0.57332 z m 53.25,-0.31067 c 0.825,-0.53316 2.625,-0.96937 4,-0.96937 1.97894,0 2.18736,0.20204 1,0.96937 -0.825,0.53316 -2.625,0.96937 -4,0.96937 -1.97894,0 -2.18736,-0.20204 -1,-0.96937 z m 7.8125,0.31689 c 0.72187,-0.28887 1.58438,-0.25335 1.91667,0.0789 0.33229,0.33229 -0.25834,0.56864 -1.3125,0.52522 -1.16495,-0.048 -1.4019,-0.28494 -0.60417,-0.60417 z m -114.0625,-0.97917 c 0.6875,-0.27741 1.8125,-0.27741 2.5,0 0.6875,0.27741 0.125,0.50438 -1.25,0.50438 -1.375,0 -1.9375,-0.22697 -1.25,-0.50438 z m 58.0625,-0.0208 c 0.72187,-0.28887 1.58437,-0.25334 1.91667,0.0789 0.33229,0.33229 -0.25834,0.56864 -1.3125,0.52522 -1.16495,-0.048 -1.4019,-0.28494 -0.60417,-0.60417 z m 11.1875,-0.30569 c 0,-0.54384 1.125,-0.89569 2.5,-0.78189 1.375,0.1138 2.5,0.55876 2.5,0.9888 0,0.43004 -1.125,0.78189 -2.5,0.78189 -1.375,0 -2.5,-0.44496 -2.5,-0.9888 z m 27.8125,0.30569 c 0.72187,-0.28887 1.58438,-0.25335 1.91667,0.0789 0.33229,0.33229 -0.25834,0.56864 -1.3125,0.52522 -1.16495,-0.048 -1.4019,-0.28494 -0.60417,-0.60417 z m -263,-1 c 0.72188,-0.28887 1.58438,-0.25335 1.91667,0.0789 0.33229,0.33229 -0.25834,0.56864 -1.3125,0.52522 -1.16495,-0.048 -1.4019,-0.28494 -0.60417,-0.60417 z m 9.45653,-0.01 c 0.97297,-0.25355 2.32297,-0.23687 3,0.0371 0.67703,0.27395 -0.11903,0.48139 -1.76903,0.46101 -1.65,-0.0204 -2.20394,-0.2445 -1.23097,-0.49804 z m 57.48097,0.0307 c 0.6875,-0.27741 1.8125,-0.27741 2.5,0 0.6875,0.27741 0.125,0.50438 -1.25,0.50438 -1.375,0 -1.9375,-0.22697 -1.25,-0.50438 z m 5.0625,-0.0208 c 0.72188,-0.28887 1.58437,-0.25334 1.91667,0.0789 0.33229,0.33229 -0.25834,0.56864 -1.3125,0.52522 -1.16495,-0.048 -1.4019,-0.28494 -0.60417,-0.60417 z m 6.1875,-0.34827 c 0,-0.53274 0.675,-0.96862 1.5,-0.96862 0.825,0 1.5,0.17686 1.5,0.39301 0,0.21616 -0.675,0.65203 -1.5,0.96862 -0.825,0.31658 -1.5,0.13972 -1.5,-0.39301 z m 11.60301,0.19805 c -0.28327,-0.45834 0.12038,-0.83334 0.89699,-0.83334 0.77661,0 1.18026,0.375 0.89699,0.83334 -0.28326,0.45833 -0.68691,0.83333 -0.89699,0.83333 -0.21008,0 -0.61373,-0.375 -0.89699,-0.83333 z m 37.42595,-0.12761 c -0.80907,-0.51167 -1.2107,-1.19066 -0.8925,-1.50885 0.3182,-0.3182 1.14776,0.10733 1.84348,0.94562 1.4426,1.73822 1.16599,1.90204 -0.95098,0.56323 z m 24.78354,0.27783 c 0.72187,-0.28887 1.58437,-0.25335 1.91667,0.0789 0.33229,0.33229 -0.25834,0.56864 -1.3125,0.52522 -1.16495,-0.048 -1.4019,-0.28494 -0.60417,-0.60417 z m 31.1875,-0.31689 c 0,-0.55 0.45,-1 1,-1 0.55,0 1,0.45 1,1 0,0.55 -0.45,1 -1,1 -0.55,0 -1,-0.45 -1,-1 z m 6.75,0.33772 c 0.6875,-0.27741 1.8125,-0.27741 2.5,0 0.6875,0.27741 0.125,0.50438 -1.25,0.50438 -1.375,0 -1.9375,-0.22697 -1.25,-0.50438 z m 42.75,-0.33772 c 0.33992,-0.55 0.81648,-1 1.05902,-1 0.24254,0 0.44098,0.45 0.44098,1 0,0.55 -0.47656,1 -1.05902,1 -0.58246,0 -0.7809,-0.45 -0.44098,-1 z m -192.75,-0.66228 c 0.6875,-0.27741 1.8125,-0.27741 2.5,0 0.6875,0.27741 0.125,0.50438 -1.25,0.50438 -1.375,0 -1.9375,-0.22697 -1.25,-0.50438 z m 46.0625,-0.0208 c 0.72188,-0.28887 1.58437,-0.25334 1.91667,0.0789 0.33229,0.33229 -0.25834,0.56864 -1.3125,0.52522 -1.16495,-0.048 -1.4019,-0.28494 -0.60417,-0.60417 z m 21.69458,-1.30543 c -0.35034,-0.56686 0.0511,-0.73451 0.94098,-0.39301 1.73242,0.66478 2.04939,1.38155 0.61096,1.38155 -0.51754,0 -1.21592,-0.44485 -1.55194,-0.98855 z m 13.24292,0.32626 c 0.6875,-0.27741 1.8125,-0.27741 2.5,0 0.6875,0.27741 0.125,0.50438 -1.25,0.50438 -1.375,0 -1.9375,-0.22697 -1.25,-0.50438 z"
         id="path3056"
         inkscape:connector-curvature="0" />
      <path
         style="fill:#2f2f2f"
         d="m 723.14285,589.50507 c 0.68469,-0.825 1.67193,-1.5 2.19387,-1.5 0.52194,0 0.27399,0.675 -0.55101,1.5 -0.825,0.825 -1.81225,1.5 -2.19388,1.5 -0.38163,0 -0.13367,-0.675 0.55102,-1.5 z m -109.02981,-1.44431 c 1.57274,-2.93869 3.01076,-3.42026 1.6863,-0.56472 -0.63607,1.37139 -1.50982,2.49694 -1.94167,2.50123 -0.43185,0.004 -0.31693,-0.86714 0.25537,-1.93651 z m 49.84231,0.2612 c 0.72187,-0.28887 1.58438,-0.25335 1.91667,0.0789 0.33229,0.33229 -0.25834,0.56864 -1.3125,0.52522 -1.16495,-0.048 -1.4019,-0.28494 -0.60417,-0.60417 z m 40.1875,-0.31689 c -0.90129,-0.58246 -1.02463,-0.97549 -0.30902,-0.98469 0.65504,-0.008 1.4691,0.43469 1.80902,0.98469 0.7673,1.24153 0.42112,1.24153 -1.5,0 z m -269.84359,-2.12116 c -0.98256,-1.57332 -0.91616,-2.0338 0.36407,-2.52507 0.86118,-0.33047 1.84637,-0.32026 2.18931,0.0227 0.34295,0.34295 0.0985,0.62354 -0.54312,0.62354 -0.64167,0 -1.16667,0.45 -1.16667,1 0,0.55 0.92656,1 2.05902,1 1.13246,0 1.7809,-0.45 1.44098,-1 -0.33992,-0.55 -0.10398,-1 0.52432,-1 1.79321,0 0.5929,2.22753 -1.64676,3.05604 -1.45473,0.53813 -2.35549,0.20894 -3.22115,-1.1772 z m 14.59543,0.87116 c -0.37899,-0.9625 -0.36569,-1.78443 0.0295,-1.82651 0.39524,-0.0421 1.58772,-0.23924 2.64996,-0.43813 1.06224,-0.19889 2.71344,0.0569 3.66933,0.56852 1.19369,0.63884 1.87696,0.54117 2.18175,-0.31187 0.24407,-0.6831 0.81287,-0.89701 1.264,-0.47534 1.62069,1.51483 -1.20519,2.98632 -3.43907,1.79079 -1.57903,-0.84508 -2.10735,-0.83761 -2.10735,0.0298 0,0.8684 -0.35389,0.86393 -1.41645,-0.0179 -1.12605,-0.93454 -1.49089,-0.80588 -1.77954,0.62756 -0.34166,1.69663 -0.40379,1.69977 -1.05217,0.0531 z m 32.06066,0.56689 c 0.72188,-0.28887 1.58437,-0.25335 1.91667,0.0789 0.33229,0.33229 -0.25834,0.56864 -1.3125,0.52522 -1.16495,-0.048 -1.4019,-0.28494 -0.60417,-0.60417 z m 219,0 c 0.72187,-0.28887 1.58438,-0.25335 1.91667,0.0789 0.33229,0.33229 -0.25834,0.56864 -1.3125,0.52522 -1.16495,-0.048 -1.4019,-0.28494 -0.60417,-0.60417 z m -186.23492,-1.97533 c -0.34921,-0.91001 0.17965,-1.18991 1.70831,-0.90412 1.21776,0.22767 2.62661,0.44738 3.13078,0.48825 1.60043,0.12974 -0.37561,1.44236 -2.39536,1.59116 -1.06587,0.0785 -2.16555,-0.45035 -2.44373,-1.17529 z m 49.42242,0.59942 c 0,-0.58246 0.45,-0.7809 1,-0.44098 0.55,0.33992 1,0.81648 1,1.05902 0,0.24254 -0.45,0.44098 -1,0.44098 -0.55,0 -1,-0.47656 -1,-1.05902 z m 33.61309,-0.12396 c 0.28881,-0.4673 0.94401,-0.59075 1.45601,-0.27432 1.30838,0.80863 1.16106,1.12397 -0.52511,1.12397 -0.80081,0 -1.21971,-0.38234 -0.9309,-0.84965 z m 10.38691,0.78997 c 0,-0.21616 0.69837,-0.661 1.55194,-0.98855 0.88992,-0.34149 1.29132,-0.17385 0.94098,0.39301 -0.58726,0.95021 -2.49292,1.40545 -2.49292,0.59554 z m 72.8125,-0.2901 c 0.72187,-0.28887 1.58438,-0.25335 1.91667,0.0789 0.33229,0.33229 -0.25834,0.56864 -1.3125,0.52522 -1.16495,-0.048 -1.4019,-0.28494 -0.60417,-0.60417 z M 392.23956,585.086 c -1.01176,-0.64056 -0.68977,-0.84554 1.15404,-0.73469 1.40653,0.0846 2.34896,0.49126 2.09427,0.90376 -0.60193,0.97493 -1.51657,0.92732 -3.24831,-0.16907 z m 37.5063,-0.2476 c 0.28326,-0.45833 0.93847,-0.83333 1.45601,-0.83333 0.51754,0 0.94098,0.375 0.94098,0.83333 0,0.45834 -0.65521,0.83334 -1.45601,0.83334 -0.80081,0 -1.22425,-0.375 -0.94098,-0.83334 z m 15.89699,0.16667 c -0.33992,-0.55 -0.14148,-1 0.44098,-1 0.58246,0 1.05902,0.45 1.05902,1 0,0.55 -0.19844,1 -0.44098,1 -0.24254,0 -0.7191,-0.45 -1.05902,-1 z m 16.83333,-0.45601 c 0,-0.80081 0.38234,-1.21971 0.84965,-0.9309 0.4673,0.28881 0.59075,0.94401 0.27431,1.45601 -0.80862,1.30838 -1.12396,1.16106 -1.12396,-0.52511 z m 24.16667,0.45601 c -1.63041,-0.70061 -1.68751,-0.87242 -0.30902,-0.92971 0.93004,-0.0387 1.9691,0.37971 2.30902,0.92971 0.71066,1.14988 0.67591,1.14988 -2,0 z m 9.5,0 c -2.32726,-0.74532 -2.34861,-0.80753 -0.30902,-0.90032 1.20504,-0.0548 2.4691,0.35032 2.80902,0.90032 0.33992,0.55 0.47898,0.95514 0.30902,0.90032 -0.16996,-0.0548 -1.43402,-0.45997 -2.80902,-0.90032 z m 104.5,0 c 0.33992,-0.55 0.81648,-1 1.05902,-1 0.24254,0 0.44098,0.45 0.44098,1 0,0.55 -0.47656,1 -1.05902,1 -0.58246,0 -0.7809,-0.45 -0.44098,-1 z m 44.3125,0.31689 c 0.72187,-0.28887 1.58437,-0.25335 1.91667,0.0789 0.33229,0.33229 -0.25834,0.56864 -1.3125,0.52522 -1.16495,-0.048 -1.4019,-0.28494 -0.60417,-0.60417 z m -246,-1 c 0.72188,-0.28887 1.58438,-0.25335 1.91667,0.0789 0.33229,0.33229 -0.25834,0.56864 -1.3125,0.52522 -1.16495,-0.048 -1.4019,-0.28495 -0.60417,-0.60417 z m 5.1875,-0.31689 c 0,-0.55 0.47656,-1 1.05902,-1 0.58246,0 0.7809,0.45 0.44098,1 -0.33992,0.55 -0.81648,1 -1.05902,1 -0.24254,0 -0.44098,-0.45 -0.44098,-1 z m 122.75,0.33772 c 0.6875,-0.27741 1.8125,-0.27741 2.5,0 0.6875,0.27741 0.125,0.50438 -1.25,0.50438 -1.375,0 -1.9375,-0.22697 -1.25,-0.50438 z m 197.56309,-5.64014 c -0.82768,-1.33922 -0.0951,-1.44473 5.18691,-0.74703 l 5,0.66044 -4.83677,0.45861 c -2.66023,0.25224 -5.06779,0.0848 -5.35014,-0.37202 z m -22.31309,-0.0906 c 0,-0.21616 0.675,-0.65203 1.5,-0.96862 0.825,-0.31658 1.5,-0.13972 1.5,0.39302 0,0.53273 -0.675,0.96861 -1.5,0.96861 -0.825,0 -1.5,-0.17686 -1.5,-0.39301 z m -26.73097,-1.29998 c 0.97297,-0.25354 2.32297,-0.23687 3,0.037 0.67703,0.27392 -0.11903,0.48137 -1.76903,0.46099 -1.65,-0.0204 -2.20394,-0.2445 -1.23097,-0.49804 z m 14.29735,-0.20479 c -2.04783,-0.80194 -1.09495,-1.8456 1.43362,-1.57021 0.825,0.0899 2.31406,0.2319 3.30902,0.31568 1.02671,0.0865 1.51846,0.62244 1.13713,1.23944 -0.48382,0.78284 -0.97617,0.78284 -1.75902,0 -1.36459,-1.36459 -3.01734,-1.43044 -2.18713,-0.0871 0.70007,1.13273 0.69817,1.13283 -1.93362,0.10222 z m -164.06638,-1.10222 c 0.33992,-0.55 0.81648,-1 1.05902,-1 0.24254,0 0.44098,0.45 0.44098,1 0,0.55 -0.47656,1 -1.05902,1 -0.58246,0 -0.7809,-0.45 -0.44098,-1 z m 92.18492,0.35159 c -0.35663,-0.35663 -4.36913,-0.63365 -8.91667,-0.61561 l -8.26825,0.0328 9.4737,-0.73212 c 7.38001,-0.57033 9.77155,-0.43428 10.82143,0.6156 1.1303,1.13031 1.04044,1.34773 -0.55703,1.34773 -1.04762,0 -2.19655,-0.29179 -2.55318,-0.64841 z m 11.31508,0.2554 c 0,-0.21616 0.69837,-0.661 1.55194,-0.98855 0.88992,-0.34149 1.29132,-0.17385 0.94098,0.39301 -0.58726,0.95021 -2.49292,1.40545 -2.49292,0.59554 z m 6.5,-0.60699 c -1.92824,-0.82859 -1.92138,-0.86195 0.19098,-0.92971 1.20504,-0.0387 2.4691,0.37971 2.80902,0.92971 0.731,1.18278 -0.24752,1.18278 -3,0 z m 45.5,0.004 c 0,-1.21231 2.80451,-2.53262 3.62877,-1.70836 0.29839,0.29839 -0.39602,1.04481 -1.54312,1.65872 -1.44619,0.77398 -2.08565,0.7892 -2.08565,0.0496 z m -243.43571,-1.29693 c 0.37553,-0.98622 0.9347,-1.54122 1.24258,-1.23333 0.30789,0.30789 6.4e-4,1.11479 -0.68278,1.79313 -0.98762,0.98026 -1.10248,0.8654 -0.5598,-0.5598 z m 28.18571,0.63085 c 0.6875,-0.27741 1.8125,-0.27741 2.5,0 0.6875,0.27741 0.125,0.50438 -1.25,0.50438 -1.375,0 -1.9375,-0.22697 -1.25,-0.50438 z m 15,0 c 0.6875,-0.27741 1.8125,-0.27741 2.5,0 0.6875,0.27741 0.125,0.50438 -1.25,0.50438 -1.375,0 -1.9375,-0.22697 -1.25,-0.50438 z m 36.25,-0.33772 c -1.82797,-1.18132 -0.24909,-1.18132 2.5,0 1.31874,0.56668 1.48906,0.87816 0.5,0.9144 -0.825,0.0302 -2.175,-0.38124 -3,-0.9144 z m 30.75,0.33772 c 0.6875,-0.27741 1.8125,-0.27741 2.5,0 0.6875,0.27741 0.125,0.50438 -1.25,0.50438 -1.375,0 -1.9375,-0.22697 -1.25,-0.50438 z m 12.25,0.27578 c 0,-0.21258 1.32623,-0.58115 2.94719,-0.81906 1.62095,-0.2379 2.71939,-0.064 2.44098,0.3865 -0.49551,0.80176 -5.38817,1.19454 -5.38817,0.43256 z m 18.75,-0.27578 c 0.6875,-0.27741 1.8125,-0.27741 2.5,0 0.6875,0.27741 0.125,0.50438 -1.25,0.50438 -1.375,0 -1.9375,-0.22697 -1.25,-0.50438 z m 44.75708,-0.32627 c -0.35034,-0.56686 0.0511,-0.7345 0.94098,-0.39301 1.73242,0.66479 2.04939,1.38156 0.61096,1.38156 -0.51754,0 -1.21592,-0.44485 -1.55194,-0.98855 z m -228.23805,-0.70444 c 0.97297,-0.25354 2.32297,-0.23687 3,0.037 0.67703,0.27393 -0.11903,0.48137 -1.76903,0.46099 -1.65,-0.0204 -2.20394,-0.2445 -1.23097,-0.49804 z m 21.54347,0.01 c 0.72188,-0.28887 1.58438,-0.25334 1.91667,0.0789 0.33229,0.33229 -0.25834,0.56864 -1.3125,0.52522 -1.16495,-0.048 -1.4019,-0.28494 -0.60417,-0.60417 z m 5.45125,-0.0345 c 1.52006,-0.22986 3.77006,-0.22371 5,0.0136 1.22994,0.23736 -0.0138,0.42542 -2.76375,0.41792 -2.75,-0.007 -3.75631,-0.20172 -2.23625,-0.43157 z m 18.54875,0.0345 c 0.72188,-0.28887 1.58438,-0.25334 1.91667,0.0789 0.33229,0.33229 -0.25834,0.56864 -1.3125,0.52522 -1.16495,-0.048 -1.4019,-0.28494 -0.60417,-0.60417 z m 53.53922,-0.077 c 0.36341,-0.588 0.0954,-1.29701 -0.59549,-1.57556 -0.89914,-0.3625 -0.91769,-0.52891 -0.0653,-0.58541 1.72088,-0.11408 2.54754,1.6556 1.17082,2.50646 -0.69784,0.43129 -0.9039,0.29173 -0.51008,-0.34549 z m 3.23756,-0.0955 c -0.29082,-0.47055 0.58263,-0.64309 1.94098,-0.38342 1.35836,0.25964 2.46974,0.64464 2.46974,0.85552 0,0.77375 -3.89864,0.35644 -4.41072,-0.47212 z m 40.16072,0.19324 c 0.6875,-0.27741 1.8125,-0.27741 2.5,0 0.6875,0.27741 0.125,0.50438 -1.25,0.50438 -1.375,0 -1.9375,-0.22697 -1.25,-0.50438 z m 51,0 c 0.6875,-0.27741 1.8125,-0.27741 2.5,0 0.6875,0.27741 0.125,0.50438 -1.25,0.50438 -1.375,0 -1.9375,-0.22697 -1.25,-0.50438 z m -61.75,-1.33772 c 0,-0.55 0.47656,-1 1.05902,-1 0.58246,0 0.7809,0.45 0.44098,1 -0.33992,0.55 -0.81648,1 -1.05902,1 -0.24254,0 -0.44098,-0.45 -0.44098,-1 z"
         id="path3054"
         inkscape:connector-curvature="0" />
      <path
         style="fill:#131313"
         d="m 699.74126,589.95734 c -3.13668,-2.75405 -4.03237,-2.98355 -13.32687,-3.4147 -8.25089,-0.38273 -10.85218,-0.12479 -15.12859,1.50011 -6.75112,2.56523 -10.93491,2.50639 -13.80954,-0.19419 -2.15276,-2.02241 -3.33548,-2.16232 -19.02,-2.25 -11.76107,-0.0657 -17.45328,0.2847 -19.18018,1.18085 -1.93605,1.00469 -3.21508,1.02241 -6.04446,0.0837 -1.97382,-0.65484 -4.94491,-1.2485 -6.60242,-1.31925 -1.65751,-0.0707 -3.53891,-0.45326 -4.1809,-0.85004 -0.64199,-0.39677 -1.45093,-0.2624 -1.79764,0.29859 -0.34671,0.56099 -1.79492,0.7277 -3.21825,0.37046 -1.97288,-0.49516 -2.39688,-0.34049 -1.7842,0.65084 0.54754,0.88594 0.41189,1.05823 -0.42564,0.5406 -1.74397,-1.07783 -13.40792,-1.99604 -21.07972,-1.65944 -8.53554,0.3745 -17.5318,0.32879 -34,-0.17275 -7.425,-0.22612 -14.22833,-0.0458 -15.11852,0.40071 -0.89018,0.44652 -1.91959,0.51077 -2.28758,0.14279 -1.05955,-1.05955 -9.58016,-1.04736 -8.92497,0.0128 0.33596,0.54358 -0.28739,0.66514 -1.47611,0.28785 -3.60683,-1.14476 -21.07786,-1.55623 -21.72346,-0.51161 -0.33416,0.54067 -1.13896,0.64516 -1.78846,0.23219 -0.64949,-0.41296 -6.45429,-0.7812 -12.89956,-0.8183 -6.44526,-0.0371 -11.9552,-0.30399 -12.24431,-0.5931 -0.85726,-0.85727 -6.53703,0.27412 -6.53703,1.30215 0,0.52003 -0.5625,0.59032 -1.25,0.1562 -1.86976,-1.18065 -10.78126,-1.18832 -10.05218,-0.009 0.35245,0.57028 0.0983,0.67193 -0.60045,0.24011 -2.01363,-1.2445 -6.51545,-1.42579 -7.87154,-0.31699 -0.70079,0.573 -1.58775,0.72822 -1.97104,0.34494 -0.38328,-0.38328 -0.0349,-1.14971 0.77417,-1.70318 1.03027,-0.70478 0.42232,-0.77308 -2.02896,-0.22794 -1.925,0.4281 -5.00921,0.70913 -6.8538,0.62453 -3.13913,-0.14398 -3.23514,-0.0567 -1.5,1.36395 1.78588,1.46217 1.78052,1.49152 -0.1462,0.80108 -7.20144,-2.58061 -8.46281,-3.15043 -7.99953,-3.61371 0.76818,-0.76818 -7.87074,0.65991 -9.28704,1.53523 -0.67983,0.42011 -1.21343,0.24926 -1.21343,-0.38858 0,-0.71371 -1.02601,-0.92545 -2.75,-0.56752 -5.0559,1.0497 -10.40917,1.46411 -11.83669,0.91632 -2.00466,-0.76926 -1.89152,-7.93088 0.1376,-8.70952 1.65513,-0.63513 9.68845,-0.77138 31.60904,-0.53611 7.51297,0.0806 14.03797,-0.0584 14.5,-0.30896 0.46203,-0.25057 6.24005,-0.34073 12.84005,-0.20036 19.27193,0.40988 32.0172,0.42312 47.5,0.0493 9.79589,-0.23649 16.02443,0.0699 19.19892,0.94453 6.54485,1.80316 14.71664,0.72315 13.19216,-1.7435 -0.42133,-0.68173 0.17377,-0.77295 1.73369,-0.26576 4.0218,1.30765 10.12394,1.54407 47.46325,1.83884 19.8484,0.15669 36.4984,0.5376 37,0.84647 1.23045,0.75769 12.73344,0.29407 14.13077,-0.56953 0.61236,-0.37845 2.16364,-0.30116 3.44729,0.17177 2.91041,1.07227 10.0832,0.27861 11.06861,-1.22472 0.53724,-0.81962 0.7388,-0.81228 0.75,0.0273 0.0104,0.77895 2.18584,1.05302 6.76531,0.8523 3.7125,-0.16272 9,0.10005 11.75,0.58393 10.979,1.93181 13.5,2.12697 13.5,1.04506 0,-0.67787 1.17391,-0.84466 3.15549,-0.44835 2.25575,0.45115 2.95176,0.30146 2.44098,-0.525 -0.47115,-0.76234 0.17716,-1.15609 1.90353,-1.15609 1.49071,0 2.35191,0.4306 2,1 -0.67034,1.08464 -0.61115,1.09804 7.5,1.69809 7.81042,0.57779 8.51914,0.58705 18.26158,0.23852 4.99388,-0.17865 9.19453,0.1195 9.76837,0.69334 0.58848,0.58848 3.07655,0.74125 5.98841,0.36769 l 4.98164,-0.63908 0,5.43735 c 0,4.80647 -0.21558,5.38098 -1.85797,4.95148 -1.02188,-0.26723 -2.65861,-0.0378 -3.63717,0.50983 -1.2741,0.71302 -1.58156,0.6759 -1.08301,-0.13077 0.44531,-0.72053 -0.2047,-1.12645 -1.80382,-1.12645 -1.375,0 -2.77811,0.45 -3.11803,1 -0.33992,0.55 -1.06803,1 -1.61803,1 -0.55,0 -0.7407,-0.41956 -0.42378,-0.93235 0.9831,-1.59069 -9.34041,-0.21334 -14.06488,1.87652 l -4.43221,1.96058 -3.36269,-2.95248 z m 7.40159,-0.45227 c 2.26072,-1.29234 2.30858,-1.44322 0.5,-1.57635 -1.1,-0.081 -3.53243,-0.32212 -5.40541,-0.5359 -3.34876,-0.38222 -3.37529,-0.3554 -1.59501,1.61178 2.12562,2.34879 3.13163,2.42624 6.50042,0.50047 z m -39.1727,-1.86199 c 2.10149,-1.16584 1.74601,-1.28369 -3.66377,-1.21456 -4.67311,0.0597 -5.76311,0.35153 -4.95485,1.32655 1.32833,1.60239 5.6291,1.54651 8.61862,-0.11199 z m -51.3273,-1.63801 c 0.33992,-0.55 -0.11008,-1 -1,-1 -0.88992,0 -1.33992,0.45 -1,1 0.33992,0.55 0.78992,1 1,1 0.21008,0 0.66008,-0.45 1,-1 z m -184.75,1.33772 c 0.6875,-0.27741 1.8125,-0.27741 2.5,0 0.6875,0.27741 0.125,0.50438 -1.25,0.50438 -1.375,0 -1.9375,-0.22697 -1.25,-0.50438 z m 28.0625,-2.02083 c 0.72188,-0.28887 1.58437,-0.25335 1.91667,0.0789 0.33229,0.33229 -0.25834,0.56864 -1.3125,0.52522 -1.16495,-0.048 -1.4019,-0.28494 -0.60417,-0.60417 z"
         id="path3052"
         inkscape:connector-curvature="0" />
    </g>
  </g>
</svg>
